<?xml version="1.0" encoding="utf-8" standalone="no"?>
<!DOCTYPE svg PUBLIC "-//W3C//DTD SVG 1.1//EN"
  "http://www.w3.org/Graphics/SVG/1.1/DTD/svg11.dtd">
<svg height="165.212758pt" version="1.1" viewBox="0 0 709.680822 165.212758" width="709.680822pt" xmlns="http://www.w3.org/2000/svg" xmlns:xlink="http://www.w3.org/1999/xlink">
 <metadata>
  <rdf:RDF xmlns:cc="http://creativecommons.org/ns#" xmlns:dc="http://purl.org/dc/elements/1.1/" xmlns:rdf="http://www.w3.org/1999/02/22-rdf-syntax-ns#">
   <cc:Work>
    <dc:type rdf:resource="http://purl.org/dc/dcmitype/StillImage"/>
    <dc:date>2021-09-21T13:13:32.149635</dc:date>
    <dc:format>image/svg+xml</dc:format>
    <dc:creator>
     <cc:Agent>
      <dc:title>Matplotlib v3.4.3, https://matplotlib.org/</dc:title>
     </cc:Agent>
    </dc:creator>
   </cc:Work>
  </rdf:RDF>
 </metadata>
 <defs>
  <style type="text/css">*{stroke-linecap:butt;stroke-linejoin:round;}</style>
 </defs>
 <g id="figure_1">
  <g id="patch_1">
   <path d="M 0 165.212758 
L 709.680822 165.212758 
L 709.680822 0 
L 0 0 
z
" style="fill:#ffffff;"/>
  </g>
  <g id="axes_1">
   <g id="patch_2">
    <path d="M 64.155439 122.827124 
L 622.155439 122.827124 
L 622.155439 11.947124 
L 64.155439 11.947124 
z
" style="fill:#ffffff;"/>
   </g>
   <g id="matplotlib.axis_1">
    <g id="xtick_1">
     <g id="line2d_1">
      <defs>
       <path d="M 0 0 
L 0 3.5 
" id="m8dafc7fefe" style="stroke:#000000;stroke-width:0.8;"/>
      </defs>
      <g>
       <use style="stroke:#000000;stroke-width:0.8;" x="119.955439" xlink:href="#m8dafc7fefe" y="122.827124"/>
      </g>
     </g>
     <g id="text_1">
      <!-- −4000 -->
      <g transform="translate(98.820341 139.321371)scale(0.12495 -0.12495)">
       <defs>
        <path d="M 678 2272 
L 4684 2272 
L 4684 1741 
L 678 1741 
L 678 2272 
z
" id="DejaVuSans-2212" transform="scale(0.015625)"/>
        <path d="M 2419 4116 
L 825 1625 
L 2419 1625 
L 2419 4116 
z
M 2253 4666 
L 3047 4666 
L 3047 1625 
L 3713 1625 
L 3713 1100 
L 3047 1100 
L 3047 0 
L 2419 0 
L 2419 1100 
L 313 1100 
L 313 1709 
L 2253 4666 
z
" id="DejaVuSans-34" transform="scale(0.015625)"/>
        <path d="M 2034 4250 
Q 1547 4250 1301 3770 
Q 1056 3291 1056 2328 
Q 1056 1369 1301 889 
Q 1547 409 2034 409 
Q 2525 409 2770 889 
Q 3016 1369 3016 2328 
Q 3016 3291 2770 3770 
Q 2525 4250 2034 4250 
z
M 2034 4750 
Q 2819 4750 3233 4129 
Q 3647 3509 3647 2328 
Q 3647 1150 3233 529 
Q 2819 -91 2034 -91 
Q 1250 -91 836 529 
Q 422 1150 422 2328 
Q 422 3509 836 4129 
Q 1250 4750 2034 4750 
z
" id="DejaVuSans-30" transform="scale(0.015625)"/>
       </defs>
       <use xlink:href="#DejaVuSans-2212"/>
       <use x="83.789062" xlink:href="#DejaVuSans-34"/>
       <use x="147.412109" xlink:href="#DejaVuSans-30"/>
       <use x="211.035156" xlink:href="#DejaVuSans-30"/>
       <use x="274.658203" xlink:href="#DejaVuSans-30"/>
      </g>
     </g>
    </g>
    <g id="xtick_2">
     <g id="line2d_2">
      <g>
       <use style="stroke:#000000;stroke-width:0.8;" x="231.555439" xlink:href="#m8dafc7fefe" y="122.827124"/>
      </g>
     </g>
     <g id="text_2">
      <!-- −2000 -->
      <g transform="translate(210.420341 139.321371)scale(0.12495 -0.12495)">
       <defs>
        <path d="M 1228 531 
L 3431 531 
L 3431 0 
L 469 0 
L 469 531 
Q 828 903 1448 1529 
Q 2069 2156 2228 2338 
Q 2531 2678 2651 2914 
Q 2772 3150 2772 3378 
Q 2772 3750 2511 3984 
Q 2250 4219 1831 4219 
Q 1534 4219 1204 4116 
Q 875 4013 500 3803 
L 500 4441 
Q 881 4594 1212 4672 
Q 1544 4750 1819 4750 
Q 2544 4750 2975 4387 
Q 3406 4025 3406 3419 
Q 3406 3131 3298 2873 
Q 3191 2616 2906 2266 
Q 2828 2175 2409 1742 
Q 1991 1309 1228 531 
z
" id="DejaVuSans-32" transform="scale(0.015625)"/>
       </defs>
       <use xlink:href="#DejaVuSans-2212"/>
       <use x="83.789062" xlink:href="#DejaVuSans-32"/>
       <use x="147.412109" xlink:href="#DejaVuSans-30"/>
       <use x="211.035156" xlink:href="#DejaVuSans-30"/>
       <use x="274.658203" xlink:href="#DejaVuSans-30"/>
      </g>
     </g>
    </g>
    <g id="xtick_3">
     <g id="line2d_3">
      <g>
       <use style="stroke:#000000;stroke-width:0.8;" x="343.155439" xlink:href="#m8dafc7fefe" y="122.827124"/>
      </g>
     </g>
     <g id="text_3">
      <!-- 0 -->
      <g transform="translate(339.180467 139.321371)scale(0.12495 -0.12495)">
       <use xlink:href="#DejaVuSans-30"/>
      </g>
     </g>
    </g>
    <g id="xtick_4">
     <g id="line2d_4">
      <g>
       <use style="stroke:#000000;stroke-width:0.8;" x="454.755439" xlink:href="#m8dafc7fefe" y="122.827124"/>
      </g>
     </g>
     <g id="text_4">
      <!-- 2000 -->
      <g transform="translate(438.855551 139.321371)scale(0.12495 -0.12495)">
       <use xlink:href="#DejaVuSans-32"/>
       <use x="63.623047" xlink:href="#DejaVuSans-30"/>
       <use x="127.246094" xlink:href="#DejaVuSans-30"/>
       <use x="190.869141" xlink:href="#DejaVuSans-30"/>
      </g>
     </g>
    </g>
    <g id="xtick_5">
     <g id="line2d_5">
      <g>
       <use style="stroke:#000000;stroke-width:0.8;" x="566.355439" xlink:href="#m8dafc7fefe" y="122.827124"/>
      </g>
     </g>
     <g id="text_5">
      <!-- 4000 -->
      <g transform="translate(550.455551 139.321371)scale(0.12495 -0.12495)">
       <use xlink:href="#DejaVuSans-34"/>
       <use x="63.623047" xlink:href="#DejaVuSans-30"/>
       <use x="127.246094" xlink:href="#DejaVuSans-30"/>
       <use x="190.869141" xlink:href="#DejaVuSans-30"/>
      </g>
     </g>
    </g>
    <g id="text_6">
     <!-- x(m) -->
     <g transform="translate(328.497242 155.414189)scale(0.12495 -0.12495)">
      <defs>
       <path d="M 3513 3500 
L 2247 1797 
L 3578 0 
L 2900 0 
L 1881 1375 
L 863 0 
L 184 0 
L 1544 1831 
L 300 3500 
L 978 3500 
L 1906 2253 
L 2834 3500 
L 3513 3500 
z
" id="DejaVuSans-78" transform="scale(0.015625)"/>
       <path d="M 1984 4856 
Q 1566 4138 1362 3434 
Q 1159 2731 1159 2009 
Q 1159 1288 1364 580 
Q 1569 -128 1984 -844 
L 1484 -844 
Q 1016 -109 783 600 
Q 550 1309 550 2009 
Q 550 2706 781 3412 
Q 1013 4119 1484 4856 
L 1984 4856 
z
" id="DejaVuSans-28" transform="scale(0.015625)"/>
       <path d="M 3328 2828 
Q 3544 3216 3844 3400 
Q 4144 3584 4550 3584 
Q 5097 3584 5394 3201 
Q 5691 2819 5691 2113 
L 5691 0 
L 5113 0 
L 5113 2094 
Q 5113 2597 4934 2840 
Q 4756 3084 4391 3084 
Q 3944 3084 3684 2787 
Q 3425 2491 3425 1978 
L 3425 0 
L 2847 0 
L 2847 2094 
Q 2847 2600 2669 2842 
Q 2491 3084 2119 3084 
Q 1678 3084 1418 2786 
Q 1159 2488 1159 1978 
L 1159 0 
L 581 0 
L 581 3500 
L 1159 3500 
L 1159 2956 
Q 1356 3278 1631 3431 
Q 1906 3584 2284 3584 
Q 2666 3584 2933 3390 
Q 3200 3197 3328 2828 
z
" id="DejaVuSans-6d" transform="scale(0.015625)"/>
       <path d="M 513 4856 
L 1013 4856 
Q 1481 4119 1714 3412 
Q 1947 2706 1947 2009 
Q 1947 1309 1714 600 
Q 1481 -109 1013 -844 
L 513 -844 
Q 928 -128 1133 580 
Q 1338 1288 1338 2009 
Q 1338 2731 1133 3434 
Q 928 4138 513 4856 
z
" id="DejaVuSans-29" transform="scale(0.015625)"/>
      </defs>
      <use xlink:href="#DejaVuSans-78"/>
      <use x="59.179688" xlink:href="#DejaVuSans-28"/>
      <use x="98.193359" xlink:href="#DejaVuSans-6d"/>
      <use x="195.605469" xlink:href="#DejaVuSans-29"/>
     </g>
    </g>
   </g>
   <g id="matplotlib.axis_2">
    <g id="ytick_1">
     <g id="line2d_6">
      <defs>
       <path d="M 0 0 
L -3.5 0 
" id="m8234673680" style="stroke:#000000;stroke-width:0.8;"/>
      </defs>
      <g>
       <use style="stroke:#000000;stroke-width:0.8;" x="64.155439" xlink:href="#m8234673680" y="117.787124"/>
      </g>
     </g>
     <g id="text_7">
      <!-- 0.0 -->
      <g style="fill:#d62728;" transform="translate(37.284484 122.534248)scale(0.12495 -0.12495)">
       <defs>
        <path d="M 684 794 
L 1344 794 
L 1344 0 
L 684 0 
L 684 794 
z
" id="DejaVuSans-2e" transform="scale(0.015625)"/>
       </defs>
       <use xlink:href="#DejaVuSans-30"/>
       <use x="63.623047" xlink:href="#DejaVuSans-2e"/>
       <use x="95.410156" xlink:href="#DejaVuSans-30"/>
      </g>
     </g>
    </g>
    <g id="ytick_2">
     <g id="line2d_7">
      <g>
       <use style="stroke:#000000;stroke-width:0.8;" x="64.155439" xlink:href="#m8234673680" y="63.640372"/>
      </g>
     </g>
     <g id="text_8">
      <!-- 0.2 -->
      <g style="fill:#d62728;" transform="translate(37.284484 68.387496)scale(0.12495 -0.12495)">
       <use xlink:href="#DejaVuSans-30"/>
       <use x="63.623047" xlink:href="#DejaVuSans-2e"/>
       <use x="95.410156" xlink:href="#DejaVuSans-32"/>
      </g>
     </g>
    </g>
    <g id="text_9">
     <!-- Amplitude of the -->
     <g style="fill:#d62728;" transform="translate(16.694248 119.648438)rotate(-90)scale(0.12495 -0.12495)">
      <defs>
       <path d="M 2188 4044 
L 1331 1722 
L 3047 1722 
L 2188 4044 
z
M 1831 4666 
L 2547 4666 
L 4325 0 
L 3669 0 
L 3244 1197 
L 1141 1197 
L 716 0 
L 50 0 
L 1831 4666 
z
" id="DejaVuSans-41" transform="scale(0.015625)"/>
       <path d="M 1159 525 
L 1159 -1331 
L 581 -1331 
L 581 3500 
L 1159 3500 
L 1159 2969 
Q 1341 3281 1617 3432 
Q 1894 3584 2278 3584 
Q 2916 3584 3314 3078 
Q 3713 2572 3713 1747 
Q 3713 922 3314 415 
Q 2916 -91 2278 -91 
Q 1894 -91 1617 61 
Q 1341 213 1159 525 
z
M 3116 1747 
Q 3116 2381 2855 2742 
Q 2594 3103 2138 3103 
Q 1681 3103 1420 2742 
Q 1159 2381 1159 1747 
Q 1159 1113 1420 752 
Q 1681 391 2138 391 
Q 2594 391 2855 752 
Q 3116 1113 3116 1747 
z
" id="DejaVuSans-70" transform="scale(0.015625)"/>
       <path d="M 603 4863 
L 1178 4863 
L 1178 0 
L 603 0 
L 603 4863 
z
" id="DejaVuSans-6c" transform="scale(0.015625)"/>
       <path d="M 603 3500 
L 1178 3500 
L 1178 0 
L 603 0 
L 603 3500 
z
M 603 4863 
L 1178 4863 
L 1178 4134 
L 603 4134 
L 603 4863 
z
" id="DejaVuSans-69" transform="scale(0.015625)"/>
       <path d="M 1172 4494 
L 1172 3500 
L 2356 3500 
L 2356 3053 
L 1172 3053 
L 1172 1153 
Q 1172 725 1289 603 
Q 1406 481 1766 481 
L 2356 481 
L 2356 0 
L 1766 0 
Q 1100 0 847 248 
Q 594 497 594 1153 
L 594 3053 
L 172 3053 
L 172 3500 
L 594 3500 
L 594 4494 
L 1172 4494 
z
" id="DejaVuSans-74" transform="scale(0.015625)"/>
       <path d="M 544 1381 
L 544 3500 
L 1119 3500 
L 1119 1403 
Q 1119 906 1312 657 
Q 1506 409 1894 409 
Q 2359 409 2629 706 
Q 2900 1003 2900 1516 
L 2900 3500 
L 3475 3500 
L 3475 0 
L 2900 0 
L 2900 538 
Q 2691 219 2414 64 
Q 2138 -91 1772 -91 
Q 1169 -91 856 284 
Q 544 659 544 1381 
z
M 1991 3584 
L 1991 3584 
z
" id="DejaVuSans-75" transform="scale(0.015625)"/>
       <path d="M 2906 2969 
L 2906 4863 
L 3481 4863 
L 3481 0 
L 2906 0 
L 2906 525 
Q 2725 213 2448 61 
Q 2172 -91 1784 -91 
Q 1150 -91 751 415 
Q 353 922 353 1747 
Q 353 2572 751 3078 
Q 1150 3584 1784 3584 
Q 2172 3584 2448 3432 
Q 2725 3281 2906 2969 
z
M 947 1747 
Q 947 1113 1208 752 
Q 1469 391 1925 391 
Q 2381 391 2643 752 
Q 2906 1113 2906 1747 
Q 2906 2381 2643 2742 
Q 2381 3103 1925 3103 
Q 1469 3103 1208 2742 
Q 947 2381 947 1747 
z
" id="DejaVuSans-64" transform="scale(0.015625)"/>
       <path d="M 3597 1894 
L 3597 1613 
L 953 1613 
Q 991 1019 1311 708 
Q 1631 397 2203 397 
Q 2534 397 2845 478 
Q 3156 559 3463 722 
L 3463 178 
Q 3153 47 2828 -22 
Q 2503 -91 2169 -91 
Q 1331 -91 842 396 
Q 353 884 353 1716 
Q 353 2575 817 3079 
Q 1281 3584 2069 3584 
Q 2775 3584 3186 3129 
Q 3597 2675 3597 1894 
z
M 3022 2063 
Q 3016 2534 2758 2815 
Q 2500 3097 2075 3097 
Q 1594 3097 1305 2825 
Q 1016 2553 972 2059 
L 3022 2063 
z
" id="DejaVuSans-65" transform="scale(0.015625)"/>
       <path id="DejaVuSans-20" transform="scale(0.015625)"/>
       <path d="M 1959 3097 
Q 1497 3097 1228 2736 
Q 959 2375 959 1747 
Q 959 1119 1226 758 
Q 1494 397 1959 397 
Q 2419 397 2687 759 
Q 2956 1122 2956 1747 
Q 2956 2369 2687 2733 
Q 2419 3097 1959 3097 
z
M 1959 3584 
Q 2709 3584 3137 3096 
Q 3566 2609 3566 1747 
Q 3566 888 3137 398 
Q 2709 -91 1959 -91 
Q 1206 -91 779 398 
Q 353 888 353 1747 
Q 353 2609 779 3096 
Q 1206 3584 1959 3584 
z
" id="DejaVuSans-6f" transform="scale(0.015625)"/>
       <path d="M 2375 4863 
L 2375 4384 
L 1825 4384 
Q 1516 4384 1395 4259 
Q 1275 4134 1275 3809 
L 1275 3500 
L 2222 3500 
L 2222 3053 
L 1275 3053 
L 1275 0 
L 697 0 
L 697 3053 
L 147 3053 
L 147 3500 
L 697 3500 
L 697 3744 
Q 697 4328 969 4595 
Q 1241 4863 1831 4863 
L 2375 4863 
z
" id="DejaVuSans-66" transform="scale(0.015625)"/>
       <path d="M 3513 2113 
L 3513 0 
L 2938 0 
L 2938 2094 
Q 2938 2591 2744 2837 
Q 2550 3084 2163 3084 
Q 1697 3084 1428 2787 
Q 1159 2491 1159 1978 
L 1159 0 
L 581 0 
L 581 4863 
L 1159 4863 
L 1159 2956 
Q 1366 3272 1645 3428 
Q 1925 3584 2291 3584 
Q 2894 3584 3203 3211 
Q 3513 2838 3513 2113 
z
" id="DejaVuSans-68" transform="scale(0.015625)"/>
      </defs>
      <use xlink:href="#DejaVuSans-41"/>
      <use x="68.408203" xlink:href="#DejaVuSans-6d"/>
      <use x="165.820312" xlink:href="#DejaVuSans-70"/>
      <use x="229.296875" xlink:href="#DejaVuSans-6c"/>
      <use x="257.080078" xlink:href="#DejaVuSans-69"/>
      <use x="284.863281" xlink:href="#DejaVuSans-74"/>
      <use x="324.072266" xlink:href="#DejaVuSans-75"/>
      <use x="387.451172" xlink:href="#DejaVuSans-64"/>
      <use x="450.927734" xlink:href="#DejaVuSans-65"/>
      <use x="512.451172" xlink:href="#DejaVuSans-20"/>
      <use x="544.238281" xlink:href="#DejaVuSans-6f"/>
      <use x="605.419922" xlink:href="#DejaVuSans-66"/>
      <use x="640.625" xlink:href="#DejaVuSans-20"/>
      <use x="672.412109" xlink:href="#DejaVuSans-74"/>
      <use x="711.621094" xlink:href="#DejaVuSans-68"/>
      <use x="775" xlink:href="#DejaVuSans-65"/>
     </g>
     <!--  potential field (V) -->
     <g style="fill:#d62728;" transform="translate(30.685914 123.763978)rotate(-90)scale(0.12495 -0.12495)">
      <defs>
       <path d="M 3513 2113 
L 3513 0 
L 2938 0 
L 2938 2094 
Q 2938 2591 2744 2837 
Q 2550 3084 2163 3084 
Q 1697 3084 1428 2787 
Q 1159 2491 1159 1978 
L 1159 0 
L 581 0 
L 581 3500 
L 1159 3500 
L 1159 2956 
Q 1366 3272 1645 3428 
Q 1925 3584 2291 3584 
Q 2894 3584 3203 3211 
Q 3513 2838 3513 2113 
z
" id="DejaVuSans-6e" transform="scale(0.015625)"/>
       <path d="M 2194 1759 
Q 1497 1759 1228 1600 
Q 959 1441 959 1056 
Q 959 750 1161 570 
Q 1363 391 1709 391 
Q 2188 391 2477 730 
Q 2766 1069 2766 1631 
L 2766 1759 
L 2194 1759 
z
M 3341 1997 
L 3341 0 
L 2766 0 
L 2766 531 
Q 2569 213 2275 61 
Q 1981 -91 1556 -91 
Q 1019 -91 701 211 
Q 384 513 384 1019 
Q 384 1609 779 1909 
Q 1175 2209 1959 2209 
L 2766 2209 
L 2766 2266 
Q 2766 2663 2505 2880 
Q 2244 3097 1772 3097 
Q 1472 3097 1187 3025 
Q 903 2953 641 2809 
L 641 3341 
Q 956 3463 1253 3523 
Q 1550 3584 1831 3584 
Q 2591 3584 2966 3190 
Q 3341 2797 3341 1997 
z
" id="DejaVuSans-61" transform="scale(0.015625)"/>
       <path d="M 1831 0 
L 50 4666 
L 709 4666 
L 2188 738 
L 3669 4666 
L 4325 4666 
L 2547 0 
L 1831 0 
z
" id="DejaVuSans-56" transform="scale(0.015625)"/>
      </defs>
      <use xlink:href="#DejaVuSans-20"/>
      <use x="31.787109" xlink:href="#DejaVuSans-70"/>
      <use x="95.263672" xlink:href="#DejaVuSans-6f"/>
      <use x="156.445312" xlink:href="#DejaVuSans-74"/>
      <use x="195.654297" xlink:href="#DejaVuSans-65"/>
      <use x="257.177734" xlink:href="#DejaVuSans-6e"/>
      <use x="320.556641" xlink:href="#DejaVuSans-74"/>
      <use x="359.765625" xlink:href="#DejaVuSans-69"/>
      <use x="387.548828" xlink:href="#DejaVuSans-61"/>
      <use x="448.828125" xlink:href="#DejaVuSans-6c"/>
      <use x="476.611328" xlink:href="#DejaVuSans-20"/>
      <use x="508.398438" xlink:href="#DejaVuSans-66"/>
      <use x="543.603516" xlink:href="#DejaVuSans-69"/>
      <use x="571.386719" xlink:href="#DejaVuSans-65"/>
      <use x="632.910156" xlink:href="#DejaVuSans-6c"/>
      <use x="660.693359" xlink:href="#DejaVuSans-64"/>
      <use x="724.169922" xlink:href="#DejaVuSans-20"/>
      <use x="755.957031" xlink:href="#DejaVuSans-28"/>
      <use x="794.970703" xlink:href="#DejaVuSans-56"/>
      <use x="863.378906" xlink:href="#DejaVuSans-29"/>
     </g>
    </g>
   </g>
   <g id="line2d_8">
    <path clip-path="url(#pfb97c03d9d)" d="M -1 117.787124 
L 6.04149 117.787124 
L 6.90038 106.658254 
L 9.477047 106.658254 
L 10.335936 106.394806 
L 12.912603 106.394806 
L 13.771492 106.123633 
L 16.348159 106.123633 
L 17.207048 105.844479 
L 19.783715 105.844479 
L 20.642604 105.55708 
L 23.219271 105.55708 
L 24.07816 105.26116 
L 26.654827 105.26116 
L 27.513716 104.956438 
L 30.090384 104.956438 
L 30.949273 104.642619 
L 33.52594 104.642619 
L 34.384829 104.319403 
L 36.102607 104.319403 
L 36.961496 103.986476 
L 39.538163 103.986476 
L 40.397052 103.643517 
L 42.973719 103.643517 
L 43.832608 103.290192 
L 46.409275 103.290192 
L 47.268164 102.926158 
L 49.844832 102.926158 
L 50.703721 102.551062 
L 53.280388 102.551062 
L 54.139277 102.164537 
L 56.715944 102.164537 
L 57.574833 101.766208 
L 60.1515 101.766208 
L 61.010389 101.355688 
L 63.587056 101.355688 
L 64.445945 100.932577 
L 67.022612 100.932577 
L 67.881501 100.496465 
L 70.458168 100.496465 
L 71.317057 100.046931 
L 73.893725 100.046931 
L 74.752614 99.583541 
L 77.329281 99.583541 
L 78.18817 99.10585 
L 79.905948 99.10585 
L 80.764837 98.613403 
L 83.341504 98.613403 
L 84.200393 98.105731 
L 86.77706 98.105731 
L 87.635949 97.582357 
L 90.212616 97.582357 
L 91.071505 97.04279 
L 93.648173 97.04279 
L 94.507062 96.48653 
L 97.083729 96.48653 
L 97.942618 95.913068 
L 100.519285 95.913068 
L 101.378174 95.321884 
L 103.954841 95.321884 
L 104.81373 94.71245 
L 107.390397 94.71245 
L 108.249286 94.084228 
L 110.825953 94.084228 
L 111.684842 93.436675 
L 114.261509 93.436675 
L 115.120399 92.769241 
L 117.697066 92.769241 
L 118.555955 92.081371 
L 120.273733 92.081371 
L 121.132622 91.372505 
L 123.709289 91.372505 
L 124.568178 90.642082 
L 127.144845 90.642082 
L 128.003734 89.889541 
L 130.580401 89.889541 
L 131.43929 89.114322 
L 134.015957 89.114322 
L 134.874846 88.315866 
L 137.451514 88.315866 
L 138.310403 87.493626 
L 140.88707 87.493626 
L 141.745959 86.647057 
L 144.322626 86.647057 
L 145.181515 85.775632 
L 147.758182 85.775632 
L 148.617071 84.878834 
L 151.193738 84.878834 
L 152.052627 83.956169 
L 154.629294 83.956169 
L 155.488183 83.007162 
L 158.064851 83.007162 
L 158.92374 82.031367 
L 160.641518 82.031367 
L 161.500407 81.028371 
L 164.077074 81.028371 
L 164.935963 79.997794 
L 167.51263 79.997794 
L 168.371519 78.939304 
L 170.948186 78.939304 
L 171.807075 77.852611 
L 174.383742 77.852611 
L 175.242631 76.737486 
L 177.819298 76.737486 
L 178.678187 75.593756 
L 181.254855 75.593756 
L 182.113744 74.421322 
L 184.690411 74.421322 
L 185.5493 73.220156 
L 188.125967 73.220156 
L 188.984856 71.990319 
L 191.561523 71.990319 
L 192.420412 70.731963 
L 194.997079 70.731963 
L 195.855968 69.445342 
L 198.432635 69.445342 
L 199.291524 68.130819 
L 201.009303 68.130819 
L 201.868192 66.78888 
L 204.444859 66.78888 
L 205.303748 65.42014 
L 207.880415 65.42014 
L 208.739304 64.025352 
L 211.315971 64.025352 
L 212.17486 62.605421 
L 214.751527 62.605421 
L 215.610416 61.161407 
L 218.187083 61.161407 
L 219.045972 59.694542 
L 221.622639 59.694542 
L 222.481529 58.206234 
L 225.058196 58.206234 
L 225.917085 56.698078 
L 228.493752 56.698078 
L 229.352641 55.171865 
L 231.929308 55.171865 
L 232.788197 53.629585 
L 235.364864 53.629585 
L 236.223753 52.073439 
L 238.80042 52.073439 
L 239.659309 50.505842 
L 241.377087 50.505842 
L 242.235976 48.929424 
L 244.812644 48.929424 
L 245.671533 47.347038 
L 248.2482 47.347038 
L 249.107089 45.761756 
L 251.683756 45.761756 
L 252.542645 44.176868 
L 255.119312 44.176868 
L 255.978201 42.595881 
L 258.554868 42.595881 
L 259.413757 41.022511 
L 261.990424 41.022511 
L 262.849313 39.460672 
L 265.42598 39.460672 
L 266.28487 37.914469 
L 268.861537 37.914469 
L 269.720426 36.388179 
L 272.297093 36.388179 
L 273.155982 34.886238 
L 275.732649 34.886238 
L 276.591538 33.413219 
L 279.168205 33.413219 
L 280.027094 31.973805 
L 281.744872 31.973805 
L 282.603761 30.572771 
L 285.180428 30.572771 
L 286.039317 29.214947 
L 288.615985 29.214947 
L 289.474874 27.905191 
L 292.051541 27.905191 
L 292.91043 26.648353 
L 295.487097 26.648353 
L 296.345986 25.449241 
L 298.922653 25.449241 
L 299.781542 24.312583 
L 302.358209 24.312583 
L 303.217098 23.242986 
L 305.793765 23.242986 
L 306.652654 22.244901 
L 309.229322 22.244901 
L 310.088211 21.32258 
L 312.664878 21.32258 
L 313.523767 20.480038 
L 316.100434 20.480038 
L 316.959323 19.721014 
L 319.53599 19.721014 
L 320.394879 19.048937 
L 322.112657 19.048937 
L 322.971546 18.466891 
L 325.548213 18.466891 
L 326.407102 17.977579 
L 328.983769 17.977579 
L 329.842658 17.583302 
L 332.419326 17.583302 
L 333.278215 17.285931 
L 335.854882 17.285931 
L 336.713771 17.086886 
L 349.597106 17.086886 
L 350.455995 17.285931 
L 353.032663 17.285931 
L 353.891552 17.583302 
L 356.468219 17.583302 
L 357.327108 17.977579 
L 359.903775 17.977579 
L 360.762664 18.466891 
L 363.339331 18.466891 
L 364.19822 19.048937 
L 365.915998 19.048937 
L 366.774887 19.721014 
L 369.351554 19.721014 
L 370.210443 20.480038 
L 372.78711 20.480038 
L 373.646 21.32258 
L 376.222667 21.32258 
L 377.081556 22.244901 
L 379.658223 22.244901 
L 380.517112 23.242986 
L 383.093779 23.242986 
L 383.952668 24.312583 
L 386.529335 24.312583 
L 387.388224 25.449241 
L 389.964891 25.449241 
L 390.82378 26.648353 
L 393.400447 26.648353 
L 394.259336 27.905191 
L 396.836004 27.905191 
L 397.694893 29.214947 
L 400.27156 29.214947 
L 401.130449 30.572771 
L 403.707116 30.572771 
L 404.566005 31.973805 
L 406.283783 31.973805 
L 407.142672 33.413219 
L 409.719339 33.413219 
L 410.578228 34.886238 
L 413.154895 34.886238 
L 414.013784 36.388179 
L 416.590451 36.388179 
L 417.449341 37.914469 
L 420.026008 37.914469 
L 420.884897 39.460672 
L 423.461564 39.460672 
L 424.320453 41.022511 
L 426.89712 41.022511 
L 427.756009 42.595881 
L 430.332676 42.595881 
L 431.191565 44.176868 
L 433.768232 44.176868 
L 434.627121 45.761756 
L 437.203788 45.761756 
L 438.062677 47.347038 
L 440.639345 47.347038 
L 441.498234 48.929424 
L 444.074901 48.929424 
L 444.93379 50.505842 
L 446.651568 50.505842 
L 447.510457 52.073439 
L 450.087124 52.073439 
L 450.946013 53.629585 
L 453.52268 53.629585 
L 454.381569 55.171865 
L 456.958236 55.171865 
L 457.817125 56.698078 
L 460.393793 56.698078 
L 461.252682 58.206234 
L 463.829349 58.206234 
L 464.688238 59.694542 
L 467.264905 59.694542 
L 468.123794 61.161407 
L 470.700461 61.161407 
L 471.55935 62.605421 
L 474.136017 62.605421 
L 474.994906 64.025352 
L 477.571573 64.025352 
L 478.430462 65.42014 
L 481.007129 65.42014 
L 481.866019 66.78888 
L 484.442686 66.78888 
L 485.301575 68.130819 
L 487.019353 68.130819 
L 487.878242 69.445342 
L 490.454909 69.445342 
L 491.313798 70.731963 
L 493.890465 70.731963 
L 494.749354 71.990319 
L 497.326021 71.990319 
L 498.18491 73.220156 
L 500.761577 73.220156 
L 501.620466 74.421322 
L 504.197134 74.421322 
L 505.056023 75.593756 
L 507.63269 75.593756 
L 508.491579 76.737486 
L 511.068246 76.737486 
L 511.927135 77.852611 
L 514.503802 77.852611 
L 515.362691 78.939304 
L 517.939358 78.939304 
L 518.798247 79.997794 
L 521.374914 79.997794 
L 522.233803 81.028371 
L 524.810471 81.028371 
L 525.66936 82.031367 
L 527.387138 82.031367 
L 528.246027 83.007162 
L 530.822694 83.007162 
L 531.681583 83.956169 
L 534.25825 83.956169 
L 535.117139 84.878834 
L 537.693806 84.878834 
L 538.552695 85.775632 
L 541.129362 85.775632 
L 541.988251 86.647057 
L 544.564918 86.647057 
L 545.423807 87.493626 
L 548.000475 87.493626 
L 548.859364 88.315866 
L 551.436031 88.315866 
L 552.29492 89.114322 
L 554.871587 89.114322 
L 555.730476 89.889541 
L 558.307143 89.889541 
L 559.166032 90.642082 
L 561.742699 90.642082 
L 562.601588 91.372505 
L 565.178255 91.372505 
L 566.037144 92.081371 
L 567.754922 92.081371 
L 568.613812 92.769241 
L 571.190479 92.769241 
L 572.049368 93.436675 
L 574.626035 93.436675 
L 575.484924 94.084228 
L 578.061591 94.084228 
L 578.92048 94.71245 
L 581.497147 94.71245 
L 582.356036 95.321884 
L 584.932703 95.321884 
L 585.791592 95.913068 
L 588.368259 95.913068 
L 589.227148 96.48653 
L 591.803816 96.48653 
L 592.662705 97.04279 
L 595.239372 97.04279 
L 596.098261 97.582357 
L 598.674928 97.582357 
L 599.533817 98.105731 
L 602.110484 98.105731 
L 602.969373 98.613403 
L 605.54604 98.613403 
L 606.404929 99.10585 
L 608.122707 99.10585 
L 608.981596 99.583541 
L 611.558264 99.583541 
L 612.417153 100.046931 
L 614.99382 100.046931 
L 615.852709 100.496465 
L 618.429376 100.496465 
L 619.288265 100.932577 
L 621.864932 100.932577 
L 622.723821 101.355688 
L 625.300488 101.355688 
L 626.159377 101.766208 
L 628.736044 101.766208 
L 629.594933 102.164537 
L 632.1716 102.164537 
L 633.03049 102.551062 
L 635.607157 102.551062 
L 636.466046 102.926158 
L 639.042713 102.926158 
L 639.901602 103.290192 
L 642.478269 103.290192 
L 643.337158 103.643517 
L 645.913825 103.643517 
L 646.772714 103.986476 
L 649.349381 103.986476 
L 650.20827 104.319403 
L 651.926048 104.319403 
L 652.784937 104.642619 
L 655.361605 104.642619 
L 656.220494 104.956438 
L 658.797161 104.956438 
L 659.65605 105.26116 
L 662.232717 105.26116 
L 663.091606 105.55708 
L 665.668273 105.55708 
L 666.527162 105.844479 
L 669.103829 105.844479 
L 669.962718 106.123633 
L 672.539385 106.123633 
L 673.398274 106.394806 
L 675.974942 106.394806 
L 676.833831 106.658254 
L 679.410498 106.658254 
L 680.269387 117.787124 
L 710.680822 117.787124 
L 710.680822 117.787124 
" style="fill:none;stroke:#d62728;stroke-linecap:square;stroke-width:2;"/>
   </g>
   <g id="patch_3">
    <path d="M 64.155439 122.827124 
L 64.155439 11.947124 
" style="fill:none;stroke:#000000;stroke-linecap:square;stroke-linejoin:miter;stroke-width:0.8;"/>
   </g>
   <g id="patch_4">
    <path d="M 622.155439 122.827124 
L 622.155439 11.947124 
" style="fill:none;stroke:#000000;stroke-linecap:square;stroke-linejoin:miter;stroke-width:0.8;"/>
   </g>
   <g id="patch_5">
    <path d="M 64.155439 122.827124 
L 622.155439 122.827124 
" style="fill:none;stroke:#000000;stroke-linecap:square;stroke-linejoin:miter;stroke-width:0.8;"/>
   </g>
   <g id="patch_6">
    <path d="M 64.155439 11.947124 
L 622.155439 11.947124 
" style="fill:none;stroke:#000000;stroke-linecap:square;stroke-linejoin:miter;stroke-width:0.8;"/>
   </g>
  </g>
  <g id="axes_2">
   <g id="matplotlib.axis_3">
    <g id="ytick_3">
     <g id="line2d_9">
      <defs>
       <path d="M 0 0 
L 3.5 0 
" id="m13af0aaa07" style="stroke:#000000;stroke-width:0.8;"/>
      </defs>
      <g>
       <use style="stroke:#000000;stroke-width:0.8;" x="622.155439" xlink:href="#m13af0aaa07" y="122.827124"/>
      </g>
     </g>
     <g id="text_10">
      <!-- -1e-04 -->
      <g style="fill:#1f77b4;" transform="translate(629.155439 127.574248)scale(0.12495 -0.12495)">
       <defs>
        <path d="M 313 2009 
L 1997 2009 
L 1997 1497 
L 313 1497 
L 313 2009 
z
" id="DejaVuSans-2d" transform="scale(0.015625)"/>
        <path d="M 794 531 
L 1825 531 
L 1825 4091 
L 703 3866 
L 703 4441 
L 1819 4666 
L 2450 4666 
L 2450 531 
L 3481 531 
L 3481 0 
L 794 0 
L 794 531 
z
" id="DejaVuSans-31" transform="scale(0.015625)"/>
       </defs>
       <use xlink:href="#DejaVuSans-2d"/>
       <use x="36.083984" xlink:href="#DejaVuSans-31"/>
       <use x="99.707031" xlink:href="#DejaVuSans-65"/>
       <use x="161.230469" xlink:href="#DejaVuSans-2d"/>
       <use x="197.314453" xlink:href="#DejaVuSans-30"/>
       <use x="260.9375" xlink:href="#DejaVuSans-34"/>
      </g>
     </g>
    </g>
    <g id="ytick_4">
     <g id="line2d_10">
      <g>
       <use style="stroke:#000000;stroke-width:0.8;" x="622.155439" xlink:href="#m13af0aaa07" y="95.107124"/>
      </g>
     </g>
     <g id="text_11">
      <!-- 0e+00 -->
      <g style="fill:#1f77b4;" transform="translate(629.155439 99.854248)scale(0.12495 -0.12495)">
       <defs>
        <path d="M 2944 4013 
L 2944 2272 
L 4684 2272 
L 4684 1741 
L 2944 1741 
L 2944 0 
L 2419 0 
L 2419 1741 
L 678 1741 
L 678 2272 
L 2419 2272 
L 2419 4013 
L 2944 4013 
z
" id="DejaVuSans-2b" transform="scale(0.015625)"/>
       </defs>
       <use xlink:href="#DejaVuSans-30"/>
       <use x="63.623047" xlink:href="#DejaVuSans-65"/>
       <use x="125.146484" xlink:href="#DejaVuSans-2b"/>
       <use x="208.935547" xlink:href="#DejaVuSans-30"/>
       <use x="272.558594" xlink:href="#DejaVuSans-30"/>
      </g>
     </g>
    </g>
    <g id="ytick_5">
     <g id="line2d_11">
      <g>
       <use style="stroke:#000000;stroke-width:0.8;" x="622.155439" xlink:href="#m13af0aaa07" y="67.387124"/>
      </g>
     </g>
     <g id="text_12">
      <!-- 1e-04 -->
      <g style="fill:#1f77b4;" transform="translate(629.155439 72.134248)scale(0.12495 -0.12495)">
       <use xlink:href="#DejaVuSans-31"/>
       <use x="63.623047" xlink:href="#DejaVuSans-65"/>
       <use x="125.146484" xlink:href="#DejaVuSans-2d"/>
       <use x="161.230469" xlink:href="#DejaVuSans-30"/>
       <use x="224.853516" xlink:href="#DejaVuSans-34"/>
      </g>
     </g>
    </g>
    <g id="ytick_6">
     <g id="line2d_12">
      <g>
       <use style="stroke:#000000;stroke-width:0.8;" x="622.155439" xlink:href="#m13af0aaa07" y="39.667124"/>
      </g>
     </g>
     <g id="text_13">
      <!-- 2e-04 -->
      <g style="fill:#1f77b4;" transform="translate(629.155439 44.414248)scale(0.12495 -0.12495)">
       <use xlink:href="#DejaVuSans-32"/>
       <use x="63.623047" xlink:href="#DejaVuSans-65"/>
       <use x="125.146484" xlink:href="#DejaVuSans-2d"/>
       <use x="161.230469" xlink:href="#DejaVuSans-30"/>
       <use x="224.853516" xlink:href="#DejaVuSans-34"/>
      </g>
     </g>
    </g>
    <g id="ytick_7">
     <g id="line2d_13">
      <g>
       <use style="stroke:#000000;stroke-width:0.8;" x="622.155439" xlink:href="#m13af0aaa07" y="11.947124"/>
      </g>
     </g>
     <g id="text_14">
      <!-- 3e-04 -->
      <g style="fill:#1f77b4;" transform="translate(629.155439 16.694248)scale(0.12495 -0.12495)">
       <defs>
        <path d="M 2597 2516 
Q 3050 2419 3304 2112 
Q 3559 1806 3559 1356 
Q 3559 666 3084 287 
Q 2609 -91 1734 -91 
Q 1441 -91 1130 -33 
Q 819 25 488 141 
L 488 750 
Q 750 597 1062 519 
Q 1375 441 1716 441 
Q 2309 441 2620 675 
Q 2931 909 2931 1356 
Q 2931 1769 2642 2001 
Q 2353 2234 1838 2234 
L 1294 2234 
L 1294 2753 
L 1863 2753 
Q 2328 2753 2575 2939 
Q 2822 3125 2822 3475 
Q 2822 3834 2567 4026 
Q 2313 4219 1838 4219 
Q 1578 4219 1281 4162 
Q 984 4106 628 3988 
L 628 4550 
Q 988 4650 1302 4700 
Q 1616 4750 1894 4750 
Q 2613 4750 3031 4423 
Q 3450 4097 3450 3541 
Q 3450 3153 3228 2886 
Q 3006 2619 2597 2516 
z
" id="DejaVuSans-33" transform="scale(0.015625)"/>
       </defs>
       <use xlink:href="#DejaVuSans-33"/>
       <use x="63.623047" xlink:href="#DejaVuSans-65"/>
       <use x="125.146484" xlink:href="#DejaVuSans-2d"/>
       <use x="161.230469" xlink:href="#DejaVuSans-30"/>
       <use x="224.853516" xlink:href="#DejaVuSans-34"/>
      </g>
     </g>
    </g>
    <g id="text_15">
     <!-- $1^{st}$ derivative -->
     <g style="fill:#1f77b4;" transform="translate(684.658267 108.995474)rotate(-90)scale(0.12495 -0.12495)">
      <defs>
       <path d="M 3200 3397 
L 3091 2853 
Q 2863 2978 2609 3040 
Q 2356 3103 2088 3103 
Q 1634 3103 1373 2948 
Q 1113 2794 1113 2528 
Q 1113 2219 1719 2053 
Q 1766 2041 1788 2034 
L 1972 1978 
Q 2547 1819 2739 1644 
Q 2931 1469 2931 1166 
Q 2931 609 2489 259 
Q 2047 -91 1331 -91 
Q 1053 -91 747 -37 
Q 441 16 72 128 
L 184 722 
Q 500 559 806 475 
Q 1113 391 1394 391 
Q 1816 391 2080 572 
Q 2344 753 2344 1031 
Q 2344 1331 1650 1516 
L 1591 1531 
L 1394 1581 
Q 956 1697 753 1886 
Q 550 2075 550 2369 
Q 550 2928 970 3256 
Q 1391 3584 2113 3584 
Q 2397 3584 2667 3537 
Q 2938 3491 3200 3397 
z
" id="DejaVuSans-Oblique-73" transform="scale(0.015625)"/>
       <path d="M 2706 3500 
L 2619 3053 
L 1472 3053 
L 1100 1153 
Q 1081 1047 1072 975 
Q 1063 903 1063 863 
Q 1063 663 1183 572 
Q 1303 481 1569 481 
L 2150 481 
L 2053 0 
L 1503 0 
Q 991 0 739 200 
Q 488 400 488 806 
Q 488 878 497 964 
Q 506 1050 525 1153 
L 897 3053 
L 409 3053 
L 500 3500 
L 978 3500 
L 1172 4494 
L 1747 4494 
L 1556 3500 
L 2706 3500 
z
" id="DejaVuSans-Oblique-74" transform="scale(0.015625)"/>
       <path d="M 2631 2963 
Q 2534 3019 2420 3045 
Q 2306 3072 2169 3072 
Q 1681 3072 1420 2755 
Q 1159 2438 1159 1844 
L 1159 0 
L 581 0 
L 581 3500 
L 1159 3500 
L 1159 2956 
Q 1341 3275 1631 3429 
Q 1922 3584 2338 3584 
Q 2397 3584 2469 3576 
Q 2541 3569 2628 3553 
L 2631 2963 
z
" id="DejaVuSans-72" transform="scale(0.015625)"/>
       <path d="M 191 3500 
L 800 3500 
L 1894 563 
L 2988 3500 
L 3597 3500 
L 2284 0 
L 1503 0 
L 191 3500 
z
" id="DejaVuSans-76" transform="scale(0.015625)"/>
      </defs>
      <use transform="translate(0 0.565625)" xlink:href="#DejaVuSans-31"/>
      <use transform="translate(64.580078 38.846875)scale(0.7)" xlink:href="#DejaVuSans-Oblique-73"/>
      <use transform="translate(101.049805 38.846875)scale(0.7)" xlink:href="#DejaVuSans-Oblique-74"/>
      <use transform="translate(131.230469 0.565625)" xlink:href="#DejaVuSans-20"/>
      <use transform="translate(163.017578 0.565625)" xlink:href="#DejaVuSans-64"/>
      <use transform="translate(226.494141 0.565625)" xlink:href="#DejaVuSans-65"/>
      <use transform="translate(288.017578 0.565625)" xlink:href="#DejaVuSans-72"/>
      <use transform="translate(329.130859 0.565625)" xlink:href="#DejaVuSans-69"/>
      <use transform="translate(356.914062 0.565625)" xlink:href="#DejaVuSans-76"/>
      <use transform="translate(416.09375 0.565625)" xlink:href="#DejaVuSans-61"/>
      <use transform="translate(477.373047 0.565625)" xlink:href="#DejaVuSans-74"/>
      <use transform="translate(516.582031 0.565625)" xlink:href="#DejaVuSans-69"/>
      <use transform="translate(544.365234 0.565625)" xlink:href="#DejaVuSans-76"/>
      <use transform="translate(603.544922 0.565625)" xlink:href="#DejaVuSans-65"/>
     </g>
     <!-- ($V.m^2$) -->
     <g style="fill:#1f77b4;" transform="translate(699.882253 89.128424)rotate(-90)scale(0.12495 -0.12495)">
      <defs>
       <path d="M 1319 0 
L 500 4666 
L 1119 4666 
L 1797 653 
L 4063 4666 
L 4750 4666 
L 2053 0 
L 1319 0 
z
" id="DejaVuSans-Oblique-56" transform="scale(0.015625)"/>
       <path d="M 5747 2113 
L 5338 0 
L 4763 0 
L 5166 2094 
Q 5191 2228 5203 2325 
Q 5216 2422 5216 2491 
Q 5216 2772 5059 2928 
Q 4903 3084 4622 3084 
Q 4203 3084 3875 2770 
Q 3547 2456 3450 1953 
L 3066 0 
L 2491 0 
L 2900 2094 
Q 2925 2209 2937 2307 
Q 2950 2406 2950 2484 
Q 2950 2769 2794 2926 
Q 2638 3084 2363 3084 
Q 1938 3084 1609 2770 
Q 1281 2456 1184 1953 
L 800 0 
L 225 0 
L 909 3500 
L 1484 3500 
L 1375 2956 
Q 1609 3263 1923 3423 
Q 2238 3584 2597 3584 
Q 2978 3584 3223 3384 
Q 3469 3184 3519 2828 
Q 3781 3197 4126 3390 
Q 4472 3584 4856 3584 
Q 5306 3584 5551 3325 
Q 5797 3066 5797 2591 
Q 5797 2488 5784 2364 
Q 5772 2241 5747 2113 
z
" id="DejaVuSans-Oblique-6d" transform="scale(0.015625)"/>
      </defs>
      <use transform="translate(0 0.765625)" xlink:href="#DejaVuSans-28"/>
      <use transform="translate(39.013672 0.765625)" xlink:href="#DejaVuSans-Oblique-56"/>
      <use transform="translate(107.421875 0.765625)" xlink:href="#DejaVuSans-2e"/>
      <use transform="translate(158.691406 0.765625)" xlink:href="#DejaVuSans-Oblique-6d"/>
      <use transform="translate(260.753411 39.046875)scale(0.7)" xlink:href="#DejaVuSans-32"/>
      <use transform="translate(308.023919 0.765625)" xlink:href="#DejaVuSans-29"/>
     </g>
    </g>
   </g>
   <g id="line2d_14">
    <path clip-path="url(#pfb97c03d9d)" d="M -1 129.547955 
L -0.829622 129.547955 
L 0.029267 130.244417 
L 2.605934 130.244417 
L 2.861315 166.212758 
M 6.290439 166.212758 
L 6.780177 -1 
M 9.778543 -1 
L 10.335936 74.874798 
L 12.912603 74.874798 
L 13.771492 74.285985 
L 16.348159 74.285985 
L 17.207048 87.013252 
L 19.783715 87.013252 
L 20.642604 86.709004 
L 23.219271 86.709004 
L 24.07816 91.175457 
L 26.654827 91.175457 
L 27.513716 90.967596 
L 30.090384 90.967596 
L 30.949273 93.177637 
L 33.52594 93.177637 
L 34.384829 93.014688 
L 36.102607 93.014688 
L 36.961496 94.302297 
L 39.538163 94.302297 
L 40.397052 94.162913 
L 42.973719 94.162913 
L 43.832608 94.984963 
L 46.409275 94.984963 
L 47.268164 94.857995 
L 49.844832 94.857995 
L 50.703721 95.41148 
L 53.280388 95.41148 
L 54.139277 95.290097 
L 56.715944 95.290097 
L 57.574833 95.673069 
L 60.1515 95.673069 
L 61.010389 95.552523 
L 63.587056 95.552523 
L 64.445945 95.818728 
L 67.022612 95.818728 
L 67.881501 95.695345 
L 70.458168 95.695345 
L 71.317057 95.876257 
L 73.893725 95.876257 
L 74.752614 95.746931 
L 77.329281 95.746931 
L 78.18817 95.861801 
L 79.905948 95.861801 
L 80.764837 95.723711 
L 93.648173 95.649435 
L 94.507062 95.485676 
L 100.519285 95.458195 
L 101.378174 95.277445 
L 107.390397 95.210556 
L 108.249286 95.009876 
L 114.261509 94.904556 
L 115.120399 94.68082 
L 117.697066 94.68082 
L 118.555955 94.536897 
L 120.273733 94.536897 
L 121.132622 94.286759 
L 123.709289 94.286759 
L 124.568178 94.103137 
L 127.144845 94.103137 
L 128.003734 93.823007 
L 130.580401 93.823007 
L 131.43929 93.597831 
L 134.015957 93.597831 
L 134.874846 93.283855 
L 137.451514 93.283855 
L 138.310403 93.014626 
L 140.88707 93.014626 
L 141.745959 92.66268 
L 144.322626 92.66268 
L 145.181515 92.346339 
L 147.758182 92.346339 
L 148.617071 91.952033 
L 151.193738 91.952033 
L 152.052627 91.585043 
L 154.629294 91.585043 
L 155.488183 91.14374 
L 158.064851 91.14374 
L 158.92374 90.722155 
L 160.641518 90.722155 
L 161.500407 90.229007 
L 164.077074 90.229007 
L 164.935963 89.748558 
L 167.51263 89.748558 
L 168.371519 89.198558 
L 170.948186 89.198558 
L 171.807075 88.654749 
L 174.383742 88.654749 
L 175.242631 88.042817 
L 177.819298 88.042817 
L 178.678187 87.431038 
L 181.254855 87.431038 
L 182.113744 86.752131 
L 184.690411 86.752131 
L 185.5493 86.067805 
L 188.125967 86.067805 
L 188.984856 85.317062 
L 191.561523 85.317062 
L 192.420412 84.555826 
L 194.997079 84.555826 
L 195.855968 83.728754 
L 198.432635 83.728754 
L 199.291524 82.886668 
L 201.009303 82.886668 
L 201.868192 81.979366 
L 204.444859 81.979366 
L 205.303748 81.053174 
L 207.880415 81.053174 
L 208.739304 80.062607 
L 211.315971 80.062607 
L 212.17486 79.050035 
L 214.751527 79.050035 
L 215.610416 77.974344 
L 218.187083 77.974344 
L 219.045972 76.874438 
L 221.622639 76.874438 
L 222.481529 75.713292 
L 225.058196 75.713292 
L 225.917085 74.526785 
L 228.493752 74.526785 
L 229.352641 73.281761 
L 231.929308 73.281761 
L 232.788197 72.011472 
L 235.364864 72.011472 
L 236.223753 70.686446 
L 238.80042 70.686446 
L 239.659309 69.337669 
L 241.377087 69.337669 
L 242.235976 67.939202 
L 244.812644 67.939202 
L 245.671533 66.520081 
L 248.2482 66.520081 
L 249.107089 65.057767 
L 251.683756 65.057767 
L 252.542645 63.579617 
L 255.119312 63.579617 
L 255.978201 62.066361 
L 258.554868 62.066361 
L 259.413757 60.543896 
L 261.990424 60.543896 
L 262.849313 58.996082 
L 265.42598 58.996082 
L 266.28487 57.447515 
L 268.861537 57.447515 
L 269.720426 55.885024 
L 272.297093 55.885024 
L 273.155982 54.331995 
L 275.732649 54.331995 
L 276.591538 52.778036 
L 279.168205 52.778036 
L 280.027094 51.245342 
L 281.744872 51.245342 
L 282.603761 49.726062 
L 285.180428 49.726062 
L 286.039317 48.241148 
L 288.615985 48.241148 
L 289.474874 46.785012 
L 292.051541 46.785012 
L 292.91043 45.377232 
L 295.487097 45.377232 
L 296.345986 44.01416 
L 298.922653 44.01416 
L 299.781542 42.713811 
L 302.358209 42.713811 
L 303.217098 41.474114 
L 305.793765 41.474114 
L 306.652654 40.311275 
L 309.229322 40.311275 
L 310.088211 39.22442 
L 312.664878 39.22442 
L 313.523767 38.227667 
L 316.100434 38.227667 
L 316.959323 37.320957 
L 319.53599 37.320957 
L 320.394879 36.516029 
L 322.112657 36.516029 
L 322.971546 35.813278 
L 325.548213 35.813278 
L 326.407102 35.221789 
L 328.983769 35.221789 
L 329.842658 34.742094 
L 332.419326 34.742094 
L 333.278215 34.380393 
L 335.854882 34.380393 
L 336.713771 34.13711 
L 339.290438 34.13711 
L 340.149327 34.015389 
L 346.16155 34.015389 
L 347.020439 34.13711 
L 349.597106 34.13711 
L 350.455995 34.380393 
L 353.032663 34.380393 
L 353.891552 34.742094 
L 356.468219 34.742094 
L 357.327108 35.221789 
L 359.903775 35.221789 
L 360.762664 35.813278 
L 363.339331 35.813278 
L 364.19822 36.516029 
L 365.915998 36.516029 
L 366.774887 37.320957 
L 369.351554 37.320957 
L 370.210443 38.227667 
L 372.78711 38.227667 
L 373.646 39.22442 
L 376.222667 39.22442 
L 377.081556 40.311275 
L 379.658223 40.311275 
L 380.517112 41.474114 
L 383.093779 41.474114 
L 383.952668 42.713811 
L 386.529335 42.713811 
L 387.388224 44.01416 
L 389.964891 44.01416 
L 390.82378 45.377232 
L 393.400447 45.377232 
L 394.259336 46.785012 
L 396.836004 46.785012 
L 397.694893 48.241148 
L 400.27156 48.241148 
L 401.130449 49.726062 
L 403.707116 49.726062 
L 404.566005 51.245342 
L 406.283783 51.245342 
L 407.142672 52.778036 
L 409.719339 52.778036 
L 410.578228 54.331995 
L 413.154895 54.331995 
L 414.013784 55.885024 
L 416.590451 55.885024 
L 417.449341 57.447515 
L 420.026008 57.447515 
L 420.884897 58.996082 
L 423.461564 58.996082 
L 424.320453 60.543896 
L 426.89712 60.543896 
L 427.756009 62.066361 
L 430.332676 62.066361 
L 431.191565 63.579617 
L 433.768232 63.579617 
L 434.627121 65.057767 
L 437.203788 65.057767 
L 438.062677 66.520081 
L 440.639345 66.520081 
L 441.498234 67.939202 
L 444.074901 67.939202 
L 444.93379 69.337669 
L 446.651568 69.337669 
L 447.510457 70.686446 
L 450.087124 70.686446 
L 450.946013 72.011472 
L 453.52268 72.011472 
L 454.381569 73.281761 
L 456.958236 73.281761 
L 457.817125 74.526785 
L 460.393793 74.526785 
L 461.252682 75.713292 
L 463.829349 75.713292 
L 464.688238 76.874438 
L 467.264905 76.874438 
L 468.123794 77.974344 
L 470.700461 77.974344 
L 471.55935 79.050035 
L 474.136017 79.050035 
L 474.994906 80.062607 
L 477.571573 80.062607 
L 478.430462 81.053174 
L 481.007129 81.053174 
L 481.866019 81.979366 
L 484.442686 81.979366 
L 485.301575 82.886668 
L 487.019353 82.886668 
L 487.878242 83.728754 
L 490.454909 83.728754 
L 491.313798 84.555826 
L 493.890465 84.555826 
L 494.749354 85.317062 
L 497.326021 85.317062 
L 498.18491 86.067805 
L 500.761577 86.067805 
L 501.620466 86.752131 
L 504.197134 86.752131 
L 505.056023 87.431038 
L 507.63269 87.431038 
L 508.491579 88.042817 
L 511.068246 88.042817 
L 511.927135 88.654749 
L 514.503802 88.654749 
L 515.362691 89.198558 
L 517.939358 89.198558 
L 518.798247 89.748558 
L 521.374914 89.748558 
L 522.233803 90.229007 
L 524.810471 90.229007 
L 525.66936 90.722155 
L 527.387138 90.722155 
L 528.246027 91.14374 
L 530.822694 91.14374 
L 531.681583 91.585043 
L 534.25825 91.585043 
L 535.117139 91.952033 
L 537.693806 91.952033 
L 538.552695 92.346339 
L 541.129362 92.346339 
L 541.988251 92.66268 
L 544.564918 92.66268 
L 545.423807 93.014626 
L 548.000475 93.014626 
L 548.859364 93.283855 
L 551.436031 93.283855 
L 552.29492 93.597831 
L 554.871587 93.597831 
L 555.730476 93.823007 
L 558.307143 93.823007 
L 559.166032 94.103137 
L 561.742699 94.103137 
L 562.601588 94.286759 
L 565.178255 94.286759 
L 566.037144 94.536897 
L 567.754922 94.536897 
L 568.613812 94.68082 
L 571.190479 94.68082 
L 572.049368 94.904556 
L 578.061591 95.009876 
L 578.92048 95.210556 
L 584.932703 95.277445 
L 585.791592 95.458195 
L 591.803816 95.485676 
L 592.662705 95.649435 
L 598.674928 95.635019 
L 599.533817 95.784585 
L 621.864932 95.818728 
L 622.723821 95.552523 
L 625.300488 95.552523 
L 626.159377 95.673069 
L 628.736044 95.673069 
L 629.594933 95.290097 
L 632.1716 95.290097 
L 633.03049 95.41148 
L 635.607157 95.41148 
L 636.466046 94.857995 
L 639.042713 94.857995 
L 639.901602 94.984963 
L 642.478269 94.984963 
L 643.337158 94.162913 
L 645.913825 94.162913 
L 646.772714 94.302297 
L 649.349381 94.302297 
L 650.20827 93.014688 
L 651.926048 93.014688 
L 652.784937 93.177637 
L 655.361605 93.177637 
L 656.220494 90.967596 
L 658.797161 90.967596 
L 659.65605 91.175457 
L 662.232717 91.175457 
L 663.091606 86.709004 
L 665.668273 86.709004 
L 666.527162 87.013252 
L 669.103829 87.013252 
L 669.962718 74.285985 
L 672.539385 74.285985 
L 673.398274 74.874798 
L 675.974942 74.874798 
L 676.532335 -1 
M 679.5307 -1 
L 680.020438 166.212758 
M 683.449562 166.212758 
L 683.704943 130.244417 
L 686.28161 130.244417 
L 687.140499 129.547955 
L 689.717166 129.547955 
L 690.576055 115.852376 
L 692.293833 115.852376 
L 693.152722 115.488445 
L 695.729389 115.488445 
L 696.588278 110.478215 
L 699.164946 110.478215 
L 700.023835 110.23918 
L 702.600502 110.23918 
L 703.459391 107.657286 
L 706.036058 107.657286 
L 706.894947 107.484582 
L 709.471614 107.484582 
L 710.330503 105.919381 
L 710.680822 105.919381 
L 710.680822 105.919381 
" style="fill:none;stroke:#1f77b4;stroke-linecap:square;stroke-width:2;"/>
   </g>
   <g id="patch_7">
    <path d="M 64.155439 122.827124 
L 64.155439 11.947124 
" style="fill:none;stroke:#000000;stroke-linecap:square;stroke-linejoin:miter;stroke-width:0.8;"/>
   </g>
   <g id="patch_8">
    <path d="M 622.155439 122.827124 
L 622.155439 11.947124 
" style="fill:none;stroke:#000000;stroke-linecap:square;stroke-linejoin:miter;stroke-width:0.8;"/>
   </g>
   <g id="patch_9">
    <path d="M 64.155439 122.827124 
L 622.155439 122.827124 
" style="fill:none;stroke:#000000;stroke-linecap:square;stroke-linejoin:miter;stroke-width:0.8;"/>
   </g>
   <g id="patch_10">
    <path d="M 64.155439 11.947124 
L 622.155439 11.947124 
" style="fill:none;stroke:#000000;stroke-linecap:square;stroke-linejoin:miter;stroke-width:0.8;"/>
   </g>
  </g>
 </g>
 <defs>
  <clipPath id="pfb97c03d9d">
   <rect height="110.88" width="558" x="64.155439" y="11.947124"/>
  </clipPath>
 </defs>
</svg>
