<?xml version="1.0" encoding="utf-8" standalone="no"?>
<!DOCTYPE svg PUBLIC "-//W3C//DTD SVG 1.1//EN"
  "http://www.w3.org/Graphics/SVG/1.1/DTD/svg11.dtd">
<!-- Created with matplotlib (https://matplotlib.org/) -->
<svg height="279.826029pt" version="1.1" viewBox="0 0 429.4175 279.826029" width="429.4175pt" xmlns="http://www.w3.org/2000/svg" xmlns:xlink="http://www.w3.org/1999/xlink">
 <defs>
  <style type="text/css">
*{stroke-linecap:butt;stroke-linejoin:round;}
  </style>
 </defs>
 <g id="figure_1">
  <g id="patch_1">
   <path d="M 0 279.826029 
L 429.4175 279.826029 
L 429.4175 0 
L 0 0 
z
" style="fill:#ffffff;"/>
  </g>
  <g id="axes_1">
   <g id="patch_2">
    <path d="M 87.4175 79.104596 
L 422.2175 79.104596 
L 422.2175 15.151654 
L 87.4175 15.151654 
z
" style="fill:#ffffff;"/>
   </g>
   <g id="PathCollection_1">
    <defs>
     <path d="M 0 3 
C 0.795609 3 1.55874 2.683901 2.12132 2.12132 
C 2.683901 1.55874 3 0.795609 3 0 
C 3 -0.795609 2.683901 -1.55874 2.12132 -2.12132 
C 1.55874 -2.683901 0.795609 -3 0 -3 
C -0.795609 -3 -1.55874 -2.683901 -2.12132 -2.12132 
C -2.683901 -1.55874 -3 -0.795609 -3 0 
C -3 0.795609 -2.683901 1.55874 -2.12132 2.12132 
C -1.55874 2.683901 -0.795609 3 0 3 
z
" id="md17ba6007c" style="stroke:#008000;"/>
    </defs>
    <g clip-path="url(#pb8a88ff33f)">
     <use style="fill:#008000;stroke:#008000;" x="150.589372" xlink:href="#md17ba6007c" y="73.484831"/>
    </g>
   </g>
   <g id="PathCollection_2">
    <g clip-path="url(#pb8a88ff33f)">
     <use style="fill:#008000;stroke:#008000;" x="255.605061" xlink:href="#md17ba6007c" y="20.911401"/>
    </g>
   </g>
   <g id="matplotlib.axis_1">
    <g id="xtick_1">
     <g id="line2d_1">
      <defs>
       <path d="M 0 0 
L 0 3.5 
" id="m3c5e457ada" style="stroke:#000000;stroke-width:0.8;"/>
      </defs>
      <g>
       <use style="stroke:#000000;stroke-width:0.8;" x="102.635682" xlink:href="#m3c5e457ada" y="79.104596"/>
      </g>
     </g>
    </g>
    <g id="xtick_2">
     <g id="line2d_2">
      <g>
       <use style="stroke:#000000;stroke-width:0.8;" x="189.596721" xlink:href="#m3c5e457ada" y="79.104596"/>
      </g>
     </g>
    </g>
    <g id="xtick_3">
     <g id="line2d_3">
      <g>
       <use style="stroke:#000000;stroke-width:0.8;" x="276.55776" xlink:href="#m3c5e457ada" y="79.104596"/>
      </g>
     </g>
    </g>
    <g id="xtick_4">
     <g id="line2d_4">
      <g>
       <use style="stroke:#000000;stroke-width:0.8;" x="363.518799" xlink:href="#m3c5e457ada" y="79.104596"/>
      </g>
     </g>
    </g>
    <g id="text_1">
     <!-- [] -->
     <defs>
      <path d="M 8.59375 75.984375 
L 29.296875 75.984375 
L 29.296875 69 
L 17.578125 69 
L 17.578125 -6.203125 
L 29.296875 -6.203125 
L 29.296875 -13.1875 
L 8.59375 -13.1875 
z
" id="DejaVuSans-91"/>
      <path d="M 30.421875 75.984375 
L 30.421875 -13.1875 
L 9.71875 -13.1875 
L 9.71875 -6.203125 
L 21.390625 -6.203125 
L 21.390625 69 
L 9.71875 69 
L 9.71875 75.984375 
z
" id="DejaVuSans-93"/>
     </defs>
     <g transform="translate(248.965156 101.502252)scale(0.15 -0.15)">
      <use xlink:href="#DejaVuSans-91"/>
      <use x="39.013672" xlink:href="#DejaVuSans-93"/>
     </g>
    </g>
   </g>
   <g id="matplotlib.axis_2">
    <g id="ytick_1">
     <g id="line2d_5">
      <defs>
       <path d="M 0 0 
L -3.5 0 
" id="m4faff08b1d" style="stroke:#000000;stroke-width:0.8;"/>
      </defs>
      <g>
       <use style="stroke:#000000;stroke-width:0.8;" x="87.4175" xlink:href="#m4faff08b1d" y="69.181143"/>
      </g>
     </g>
     <g id="text_2">
      <!-- 0 -->
      <defs>
       <path d="M 31.78125 66.40625 
Q 24.171875 66.40625 20.328125 58.90625 
Q 16.5 51.421875 16.5 36.375 
Q 16.5 21.390625 20.328125 13.890625 
Q 24.171875 6.390625 31.78125 6.390625 
Q 39.453125 6.390625 43.28125 13.890625 
Q 47.125 21.390625 47.125 36.375 
Q 47.125 51.421875 43.28125 58.90625 
Q 39.453125 66.40625 31.78125 66.40625 
z
M 31.78125 74.21875 
Q 44.046875 74.21875 50.515625 64.515625 
Q 56.984375 54.828125 56.984375 36.375 
Q 56.984375 17.96875 50.515625 8.265625 
Q 44.046875 -1.421875 31.78125 -1.421875 
Q 19.53125 -1.421875 13.0625 8.265625 
Q 6.59375 17.96875 6.59375 36.375 
Q 6.59375 54.828125 13.0625 64.515625 
Q 19.53125 74.21875 31.78125 74.21875 
z
" id="DejaVuSans-48"/>
      </defs>
      <g transform="translate(70.87375 74.879971)scale(0.15 -0.15)">
       <use xlink:href="#DejaVuSans-48"/>
      </g>
     </g>
    </g>
    <g id="ytick_2">
     <g id="line2d_6">
      <g>
       <use style="stroke:#000000;stroke-width:0.8;" x="87.4175" xlink:href="#m4faff08b1d" y="26.033469"/>
      </g>
     </g>
     <g id="text_3">
      <!-- 5 -->
      <defs>
       <path d="M 10.796875 72.90625 
L 49.515625 72.90625 
L 49.515625 64.59375 
L 19.828125 64.59375 
L 19.828125 46.734375 
Q 21.96875 47.46875 24.109375 47.828125 
Q 26.265625 48.1875 28.421875 48.1875 
Q 40.625 48.1875 47.75 41.5 
Q 54.890625 34.8125 54.890625 23.390625 
Q 54.890625 11.625 47.5625 5.09375 
Q 40.234375 -1.421875 26.90625 -1.421875 
Q 22.3125 -1.421875 17.546875 -0.640625 
Q 12.796875 0.140625 7.71875 1.703125 
L 7.71875 11.625 
Q 12.109375 9.234375 16.796875 8.0625 
Q 21.484375 6.890625 26.703125 6.890625 
Q 35.15625 6.890625 40.078125 11.328125 
Q 45.015625 15.765625 45.015625 23.390625 
Q 45.015625 31 40.078125 35.4375 
Q 35.15625 39.890625 26.703125 39.890625 
Q 22.75 39.890625 18.8125 39.015625 
Q 14.890625 38.140625 10.796875 36.28125 
z
" id="DejaVuSans-53"/>
      </defs>
      <g transform="translate(70.87375 31.732298)scale(0.15 -0.15)">
       <use xlink:href="#DejaVuSans-53"/>
      </g>
     </g>
    </g>
    <g id="text_4">
     <!-- voltage u   -->
     <defs>
      <path d="M 2.984375 54.6875 
L 12.5 54.6875 
L 29.59375 8.796875 
L 46.6875 54.6875 
L 56.203125 54.6875 
L 35.6875 0 
L 23.484375 0 
z
" id="DejaVuSans-118"/>
      <path d="M 30.609375 48.390625 
Q 23.390625 48.390625 19.1875 42.75 
Q 14.984375 37.109375 14.984375 27.296875 
Q 14.984375 17.484375 19.15625 11.84375 
Q 23.34375 6.203125 30.609375 6.203125 
Q 37.796875 6.203125 41.984375 11.859375 
Q 46.1875 17.53125 46.1875 27.296875 
Q 46.1875 37.015625 41.984375 42.703125 
Q 37.796875 48.390625 30.609375 48.390625 
z
M 30.609375 56 
Q 42.328125 56 49.015625 48.375 
Q 55.71875 40.765625 55.71875 27.296875 
Q 55.71875 13.875 49.015625 6.21875 
Q 42.328125 -1.421875 30.609375 -1.421875 
Q 18.84375 -1.421875 12.171875 6.21875 
Q 5.515625 13.875 5.515625 27.296875 
Q 5.515625 40.765625 12.171875 48.375 
Q 18.84375 56 30.609375 56 
z
" id="DejaVuSans-111"/>
      <path d="M 9.421875 75.984375 
L 18.40625 75.984375 
L 18.40625 0 
L 9.421875 0 
z
" id="DejaVuSans-108"/>
      <path d="M 18.3125 70.21875 
L 18.3125 54.6875 
L 36.8125 54.6875 
L 36.8125 47.703125 
L 18.3125 47.703125 
L 18.3125 18.015625 
Q 18.3125 11.328125 20.140625 9.421875 
Q 21.96875 7.515625 27.59375 7.515625 
L 36.8125 7.515625 
L 36.8125 0 
L 27.59375 0 
Q 17.1875 0 13.234375 3.875 
Q 9.28125 7.765625 9.28125 18.015625 
L 9.28125 47.703125 
L 2.6875 47.703125 
L 2.6875 54.6875 
L 9.28125 54.6875 
L 9.28125 70.21875 
z
" id="DejaVuSans-116"/>
      <path d="M 34.28125 27.484375 
Q 23.390625 27.484375 19.1875 25 
Q 14.984375 22.515625 14.984375 16.5 
Q 14.984375 11.71875 18.140625 8.90625 
Q 21.296875 6.109375 26.703125 6.109375 
Q 34.1875 6.109375 38.703125 11.40625 
Q 43.21875 16.703125 43.21875 25.484375 
L 43.21875 27.484375 
z
M 52.203125 31.203125 
L 52.203125 0 
L 43.21875 0 
L 43.21875 8.296875 
Q 40.140625 3.328125 35.546875 0.953125 
Q 30.953125 -1.421875 24.3125 -1.421875 
Q 15.921875 -1.421875 10.953125 3.296875 
Q 6 8.015625 6 15.921875 
Q 6 25.140625 12.171875 29.828125 
Q 18.359375 34.515625 30.609375 34.515625 
L 43.21875 34.515625 
L 43.21875 35.40625 
Q 43.21875 41.609375 39.140625 45 
Q 35.0625 48.390625 27.6875 48.390625 
Q 23 48.390625 18.546875 47.265625 
Q 14.109375 46.140625 10.015625 43.890625 
L 10.015625 52.203125 
Q 14.9375 54.109375 19.578125 55.046875 
Q 24.21875 56 28.609375 56 
Q 40.484375 56 46.34375 49.84375 
Q 52.203125 43.703125 52.203125 31.203125 
z
" id="DejaVuSans-97"/>
      <path d="M 45.40625 27.984375 
Q 45.40625 37.75 41.375 43.109375 
Q 37.359375 48.484375 30.078125 48.484375 
Q 22.859375 48.484375 18.828125 43.109375 
Q 14.796875 37.75 14.796875 27.984375 
Q 14.796875 18.265625 18.828125 12.890625 
Q 22.859375 7.515625 30.078125 7.515625 
Q 37.359375 7.515625 41.375 12.890625 
Q 45.40625 18.265625 45.40625 27.984375 
z
M 54.390625 6.78125 
Q 54.390625 -7.171875 48.1875 -13.984375 
Q 42 -20.796875 29.203125 -20.796875 
Q 24.46875 -20.796875 20.265625 -20.09375 
Q 16.0625 -19.390625 12.109375 -17.921875 
L 12.109375 -9.1875 
Q 16.0625 -11.328125 19.921875 -12.34375 
Q 23.78125 -13.375 27.78125 -13.375 
Q 36.625 -13.375 41.015625 -8.765625 
Q 45.40625 -4.15625 45.40625 5.171875 
L 45.40625 9.625 
Q 42.625 4.78125 38.28125 2.390625 
Q 33.9375 0 27.875 0 
Q 17.828125 0 11.671875 7.65625 
Q 5.515625 15.328125 5.515625 27.984375 
Q 5.515625 40.671875 11.671875 48.328125 
Q 17.828125 56 27.875 56 
Q 33.9375 56 38.28125 53.609375 
Q 42.625 51.21875 45.40625 46.390625 
L 45.40625 54.6875 
L 54.390625 54.6875 
z
" id="DejaVuSans-103"/>
      <path d="M 56.203125 29.59375 
L 56.203125 25.203125 
L 14.890625 25.203125 
Q 15.484375 15.921875 20.484375 11.0625 
Q 25.484375 6.203125 34.421875 6.203125 
Q 39.59375 6.203125 44.453125 7.46875 
Q 49.3125 8.734375 54.109375 11.28125 
L 54.109375 2.78125 
Q 49.265625 0.734375 44.1875 -0.34375 
Q 39.109375 -1.421875 33.890625 -1.421875 
Q 20.796875 -1.421875 13.15625 6.1875 
Q 5.515625 13.8125 5.515625 26.8125 
Q 5.515625 40.234375 12.765625 48.109375 
Q 20.015625 56 32.328125 56 
Q 43.359375 56 49.78125 48.890625 
Q 56.203125 41.796875 56.203125 29.59375 
z
M 47.21875 32.234375 
Q 47.125 39.59375 43.09375 43.984375 
Q 39.0625 48.390625 32.421875 48.390625 
Q 24.90625 48.390625 20.390625 44.140625 
Q 15.875 39.890625 15.1875 32.171875 
z
" id="DejaVuSans-101"/>
      <path id="DejaVuSans-32"/>
      <path d="M 8.5 21.578125 
L 8.5 54.6875 
L 17.484375 54.6875 
L 17.484375 21.921875 
Q 17.484375 14.15625 20.5 10.265625 
Q 23.53125 6.390625 29.59375 6.390625 
Q 36.859375 6.390625 41.078125 11.03125 
Q 45.3125 15.671875 45.3125 23.6875 
L 45.3125 54.6875 
L 54.296875 54.6875 
L 54.296875 0 
L 45.3125 0 
L 45.3125 8.40625 
Q 42.046875 3.421875 37.71875 1 
Q 33.40625 -1.421875 27.6875 -1.421875 
Q 18.265625 -1.421875 13.375 4.4375 
Q 8.5 10.296875 8.5 21.578125 
z
M 31.109375 56 
z
" id="DejaVuSans-117"/>
     </defs>
     <g transform="translate(46.9575 87.05625)rotate(-90)scale(0.15 -0.15)">
      <use xlink:href="#DejaVuSans-118"/>
      <use x="59.179688" xlink:href="#DejaVuSans-111"/>
      <use x="120.361328" xlink:href="#DejaVuSans-108"/>
      <use x="148.144531" xlink:href="#DejaVuSans-116"/>
      <use x="187.353516" xlink:href="#DejaVuSans-97"/>
      <use x="248.632812" xlink:href="#DejaVuSans-103"/>
      <use x="312.109375" xlink:href="#DejaVuSans-101"/>
      <use x="373.632812" xlink:href="#DejaVuSans-32"/>
      <use x="405.419922" xlink:href="#DejaVuSans-117"/>
      <use x="468.798828" xlink:href="#DejaVuSans-32"/>
      <use x="500.585938" xlink:href="#DejaVuSans-32"/>
     </g>
     <!--  (V) -->
     <defs>
      <path d="M 31 75.875 
Q 24.46875 64.65625 21.28125 53.65625 
Q 18.109375 42.671875 18.109375 31.390625 
Q 18.109375 20.125 21.3125 9.0625 
Q 24.515625 -2 31 -13.1875 
L 23.1875 -13.1875 
Q 15.875 -1.703125 12.234375 9.375 
Q 8.59375 20.453125 8.59375 31.390625 
Q 8.59375 42.28125 12.203125 53.3125 
Q 15.828125 64.359375 23.1875 75.875 
z
" id="DejaVuSans-40"/>
      <path d="M 28.609375 0 
L 0.78125 72.90625 
L 11.078125 72.90625 
L 34.1875 11.53125 
L 57.328125 72.90625 
L 67.578125 72.90625 
L 39.796875 0 
z
" id="DejaVuSans-86"/>
      <path d="M 8.015625 75.875 
L 15.828125 75.875 
Q 23.140625 64.359375 26.78125 53.3125 
Q 30.421875 42.28125 30.421875 31.390625 
Q 30.421875 20.453125 26.78125 9.375 
Q 23.140625 -1.703125 15.828125 -13.1875 
L 8.015625 -13.1875 
Q 14.5 -2 17.703125 9.0625 
Q 20.90625 20.125 20.90625 31.390625 
Q 20.90625 42.671875 17.703125 53.65625 
Q 14.5 64.65625 8.015625 75.875 
z
" id="DejaVuSans-41"/>
     </defs>
     <g transform="translate(63.754219 60.494531)rotate(-90)scale(0.15 -0.15)">
      <use xlink:href="#DejaVuSans-32"/>
      <use x="31.787109" xlink:href="#DejaVuSans-40"/>
      <use x="70.800781" xlink:href="#DejaVuSans-86"/>
      <use x="139.208984" xlink:href="#DejaVuSans-41"/>
     </g>
    </g>
   </g>
   <g id="line2d_7">
    <path clip-path="url(#pb8a88ff33f)" d="M 102.635682 72.309005 
L 121.757805 72.871799 
L 142.805077 73.418786 
L 153.374368 73.474919 
L 161.432597 73.304255 
L 168.128765 72.948525 
L 174.117269 72.411722 
L 179.489421 71.711942 
L 184.511547 70.835851 
L 189.23691 69.786814 
L 193.726386 68.563198 
L 198.018021 67.163106 
L 202.104205 65.597247 
L 206.045813 63.848109 
L 209.804797 61.935761 
L 213.38116 59.867197 
L 216.828164 57.616199 
L 220.100155 55.214336 
L 223.273225 52.610392 
L 226.354984 49.79514 
L 229.436743 46.678402 
L 232.594594 43.165511 
L 236.094864 38.92859 
L 246.51197 26.051225 
L 248.406681 24.214479 
L 250.156815 22.829988 
L 251.640625 21.931287 
L 253.078779 21.320714 
L 254.44845 20.992467 
L 255.840948 20.916461 
L 257.126917 21.08321 
L 258.412885 21.475057 
L 259.84343 22.142555 
L 261.289194 23.045785 
L 263.039328 24.410295 
L 265.116662 26.328345 
L 268.152765 29.495655 
L 276.614286 38.530674 
L 279.893886 41.604297 
L 282.990863 44.201283 
L 286.087841 46.507491 
L 289.26852 48.597915 
L 292.593776 50.515103 
L 296.109264 52.282803 
L 299.837812 53.909552 
L 303.908777 55.440828 
L 308.32977 56.863699 
L 313.19971 58.195346 
L 318.59469 59.437725 
L 324.674506 60.605122 
L 331.545686 61.692695 
L 339.3452 62.6986 
L 348.385026 63.635488 
L 358.92388 64.499497 
L 371.463975 65.298316 
L 386.560789 66.030595 
L 403.605579 66.635798 
L 406.999318 66.723255 
L 406.999318 66.723255 
" style="fill:none;stroke:#1f77b4;stroke-linecap:square;stroke-width:1.5;"/>
   </g>
   <g id="patch_3">
    <path d="M 87.4175 79.104596 
L 87.4175 15.151654 
" style="fill:none;stroke:#000000;stroke-linecap:square;stroke-linejoin:miter;stroke-width:0.8;"/>
   </g>
   <g id="patch_4">
    <path d="M 422.2175 79.104596 
L 422.2175 15.151654 
" style="fill:none;stroke:#000000;stroke-linecap:square;stroke-linejoin:miter;stroke-width:0.8;"/>
   </g>
   <g id="patch_5">
    <path d="M 87.4175 79.104596 
L 422.2175 79.104596 
" style="fill:none;stroke:#000000;stroke-linecap:square;stroke-linejoin:miter;stroke-width:0.8;"/>
   </g>
   <g id="patch_6">
    <path d="M 87.4175 15.151654 
L 422.2175 15.151654 
" style="fill:none;stroke:#000000;stroke-linecap:square;stroke-linejoin:miter;stroke-width:0.8;"/>
   </g>
   <g id="legend_1">
    <g id="patch_7">
     <path d="M 354.21125 49.168842 
L 411.7175 49.168842 
Q 414.7175 49.168842 414.7175 46.168842 
L 414.7175 25.651654 
Q 414.7175 22.651654 411.7175 22.651654 
L 354.21125 22.651654 
Q 351.21125 22.651654 351.21125 25.651654 
L 351.21125 46.168842 
Q 351.21125 49.168842 354.21125 49.168842 
z
" style="fill:#ffffff;opacity:0.8;stroke:#cccccc;stroke-linejoin:miter;"/>
    </g>
    <g id="line2d_8">
     <path d="M 357.21125 34.799311 
L 387.21125 34.799311 
" style="fill:none;stroke:#1f77b4;stroke-linecap:square;stroke-width:1.5;"/>
    </g>
    <g id="line2d_9"/>
    <g id="text_5">
     <!-- u -->
     <g transform="translate(399.21125 40.049311)scale(0.15 -0.15)">
      <use xlink:href="#DejaVuSans-117"/>
     </g>
    </g>
   </g>
  </g>
  <g id="axes_2">
   <g id="patch_8">
    <path d="M 87.4175 155.848125 
L 422.2175 155.848125 
L 422.2175 91.895184 
L 87.4175 91.895184 
z
" style="fill:#ffffff;"/>
   </g>
   <g id="PathCollection_3">
    <defs>
     <path d="M 0 3 
C 0.795609 3 1.55874 2.683901 2.12132 2.12132 
C 2.683901 1.55874 3 0.795609 3 0 
C 3 -0.795609 2.683901 -1.55874 2.12132 -2.12132 
C 1.55874 -2.683901 0.795609 -3 0 -3 
C -0.795609 -3 -1.55874 -2.683901 -2.12132 -2.12132 
C -2.683901 -1.55874 -3 -0.795609 -3 0 
C -3 0.795609 -2.683901 1.55874 -2.12132 2.12132 
C -1.55874 2.683901 -0.795609 3 0 3 
z
" id="mc18cb1f979" style="stroke:#0000ff;"/>
    </defs>
    <g clip-path="url(#p9e11160fb2)">
     <use style="fill:#0000ff;stroke:#0000ff;" x="127.168004" xlink:href="#mc18cb1f979" y="149.953596"/>
    </g>
   </g>
   <g id="PathCollection_4">
    <g clip-path="url(#p9e11160fb2)">
     <use style="fill:#0000ff;stroke:#0000ff;" x="121.034924" xlink:href="#mc18cb1f979" y="149.951291"/>
    </g>
   </g>
   <g id="PathCollection_5">
    <g clip-path="url(#p9e11160fb2)">
     <use style="fill:#0000ff;stroke:#0000ff;" x="124.093855" xlink:href="#mc18cb1f979" y="149.952459"/>
    </g>
   </g>
   <g id="PathCollection_6">
    <g clip-path="url(#p9e11160fb2)">
     <use style="fill:#0000ff;stroke:#0000ff;" x="118.029258" xlink:href="#mc18cb1f979" y="149.946302"/>
    </g>
   </g>
   <g id="PathCollection_7">
    <g clip-path="url(#p9e11160fb2)">
     <use style="fill:#0000ff;stroke:#0000ff;" x="254.844132" xlink:href="#mc18cb1f979" y="97.647895"/>
    </g>
   </g>
   <g id="PathCollection_8">
    <g clip-path="url(#p9e11160fb2)">
     <use style="fill:#0000ff;stroke:#0000ff;" x="122.503515" xlink:href="#mc18cb1f979" y="149.940349"/>
    </g>
   </g>
   <g id="PathCollection_9">
    <g clip-path="url(#p9e11160fb2)">
     <use style="fill:#0000ff;stroke:#0000ff;" x="125.630929" xlink:href="#mc18cb1f979" y="149.941597"/>
    </g>
   </g>
   <g id="PathCollection_10">
    <g clip-path="url(#p9e11160fb2)">
     <use style="fill:#0000ff;stroke:#0000ff;" x="119.459802" xlink:href="#mc18cb1f979" y="149.935832"/>
    </g>
   </g>
   <g id="matplotlib.axis_3">
    <g id="xtick_5">
     <g id="line2d_10">
      <g>
       <use style="stroke:#000000;stroke-width:0.8;" x="102.635682" xlink:href="#m3c5e457ada" y="155.848125"/>
      </g>
     </g>
    </g>
    <g id="xtick_6">
     <g id="line2d_11">
      <g>
       <use style="stroke:#000000;stroke-width:0.8;" x="189.596721" xlink:href="#m3c5e457ada" y="155.848125"/>
      </g>
     </g>
    </g>
    <g id="xtick_7">
     <g id="line2d_12">
      <g>
       <use style="stroke:#000000;stroke-width:0.8;" x="276.55776" xlink:href="#m3c5e457ada" y="155.848125"/>
      </g>
     </g>
    </g>
    <g id="xtick_8">
     <g id="line2d_13">
      <g>
       <use style="stroke:#000000;stroke-width:0.8;" x="363.518799" xlink:href="#m3c5e457ada" y="155.848125"/>
      </g>
     </g>
    </g>
    <g id="text_6">
     <!-- [] -->
     <g transform="translate(248.965156 178.245781)scale(0.15 -0.15)">
      <use xlink:href="#DejaVuSans-91"/>
      <use x="39.013672" xlink:href="#DejaVuSans-93"/>
     </g>
    </g>
   </g>
   <g id="matplotlib.axis_4">
    <g id="ytick_3">
     <g id="line2d_14">
      <g>
       <use style="stroke:#000000;stroke-width:0.8;" x="87.4175" xlink:href="#m4faff08b1d" y="149.845654"/>
      </g>
     </g>
     <g id="text_7">
      <!-- 0.0 -->
      <defs>
       <path d="M 10.6875 12.40625 
L 21 12.40625 
L 21 0 
L 10.6875 0 
z
" id="DejaVuSans-46"/>
      </defs>
      <g transform="translate(56.562813 155.544482)scale(0.15 -0.15)">
       <use xlink:href="#DejaVuSans-48"/>
       <use x="63.623047" xlink:href="#DejaVuSans-46"/>
       <use x="95.410156" xlink:href="#DejaVuSans-48"/>
      </g>
     </g>
    </g>
    <g id="ytick_4">
     <g id="line2d_15">
      <g>
       <use style="stroke:#000000;stroke-width:0.8;" x="87.4175" xlink:href="#m4faff08b1d" y="115.647346"/>
      </g>
     </g>
     <g id="text_8">
      <!-- 0.2 -->
      <defs>
       <path d="M 19.1875 8.296875 
L 53.609375 8.296875 
L 53.609375 0 
L 7.328125 0 
L 7.328125 8.296875 
Q 12.9375 14.109375 22.625 23.890625 
Q 32.328125 33.6875 34.8125 36.53125 
Q 39.546875 41.84375 41.421875 45.53125 
Q 43.3125 49.21875 43.3125 52.78125 
Q 43.3125 58.59375 39.234375 62.25 
Q 35.15625 65.921875 28.609375 65.921875 
Q 23.96875 65.921875 18.8125 64.3125 
Q 13.671875 62.703125 7.8125 59.421875 
L 7.8125 69.390625 
Q 13.765625 71.78125 18.9375 73 
Q 24.125 74.21875 28.421875 74.21875 
Q 39.75 74.21875 46.484375 68.546875 
Q 53.21875 62.890625 53.21875 53.421875 
Q 53.21875 48.921875 51.53125 44.890625 
Q 49.859375 40.875 45.40625 35.40625 
Q 44.1875 33.984375 37.640625 27.21875 
Q 31.109375 20.453125 19.1875 8.296875 
z
" id="DejaVuSans-50"/>
      </defs>
      <g transform="translate(56.562813 121.346174)scale(0.15 -0.15)">
       <use xlink:href="#DejaVuSans-48"/>
       <use x="63.623047" xlink:href="#DejaVuSans-46"/>
       <use x="95.410156" xlink:href="#DejaVuSans-50"/>
      </g>
     </g>
    </g>
    <g id="text_9">
     <!-- voltage -->
     <g transform="translate(31.167188 151.895873)rotate(-90)scale(0.15 -0.15)">
      <use xlink:href="#DejaVuSans-118"/>
      <use x="59.179688" xlink:href="#DejaVuSans-111"/>
      <use x="120.361328" xlink:href="#DejaVuSans-108"/>
      <use x="148.144531" xlink:href="#DejaVuSans-116"/>
      <use x="187.353516" xlink:href="#DejaVuSans-97"/>
      <use x="248.632812" xlink:href="#DejaVuSans-103"/>
      <use x="312.109375" xlink:href="#DejaVuSans-101"/>
     </g>
     <!--  ($V.m^{-2}$) -->
     <defs>
      <path d="M 20.609375 0 
L 7.8125 72.90625 
L 17.484375 72.90625 
L 28.078125 10.203125 
L 63.484375 72.90625 
L 74.21875 72.90625 
L 32.078125 0 
z
" id="DejaVuSans-Oblique-86"/>
      <path d="M 89.796875 33.015625 
L 83.40625 0 
L 74.421875 0 
L 80.71875 32.71875 
Q 81.109375 34.8125 81.296875 36.328125 
Q 81.5 37.84375 81.5 38.921875 
Q 81.5 43.3125 79.046875 45.75 
Q 76.609375 48.1875 72.21875 48.1875 
Q 65.671875 48.1875 60.546875 43.28125 
Q 55.421875 38.375 53.90625 30.515625 
L 47.90625 0 
L 38.921875 0 
L 45.3125 32.71875 
Q 45.703125 34.515625 45.890625 36.046875 
Q 46.09375 37.59375 46.09375 38.8125 
Q 46.09375 43.265625 43.65625 45.71875 
Q 41.21875 48.1875 36.921875 48.1875 
Q 30.28125 48.1875 25.140625 43.28125 
Q 20.015625 38.375 18.5 30.515625 
L 12.5 0 
L 3.515625 0 
L 14.203125 54.6875 
L 23.1875 54.6875 
L 21.484375 46.1875 
Q 25.140625 50.984375 30.046875 53.484375 
Q 34.96875 56 40.578125 56 
Q 46.53125 56 50.359375 52.875 
Q 54.203125 49.75 54.984375 44.1875 
Q 59.078125 49.953125 64.46875 52.96875 
Q 69.875 56 75.875 56 
Q 82.90625 56 86.734375 51.953125 
Q 90.578125 47.90625 90.578125 40.484375 
Q 90.578125 38.875 90.375 36.9375 
Q 90.1875 35.015625 89.796875 33.015625 
z
" id="DejaVuSans-Oblique-109"/>
      <path d="M 10.59375 35.5 
L 73.1875 35.5 
L 73.1875 27.203125 
L 10.59375 27.203125 
z
" id="DejaVuSans-8722"/>
     </defs>
     <g transform="translate(49.443281 156.721654)rotate(-90)scale(0.15 -0.15)">
      <use transform="translate(0 0.765625)" xlink:href="#DejaVuSans-32"/>
      <use transform="translate(31.787109 0.765625)" xlink:href="#DejaVuSans-40"/>
      <use transform="translate(70.800781 0.765625)" xlink:href="#DejaVuSans-Oblique-86"/>
      <use transform="translate(139.208984 0.765625)" xlink:href="#DejaVuSans-46"/>
      <use transform="translate(190.478516 0.765625)" xlink:href="#DejaVuSans-Oblique-109"/>
      <use transform="translate(292.540521 39.046875)scale(0.7)" xlink:href="#DejaVuSans-8722"/>
      <use transform="translate(351.192865 39.046875)scale(0.7)" xlink:href="#DejaVuSans-50"/>
      <use transform="translate(398.463372 0.765625)" xlink:href="#DejaVuSans-41"/>
     </g>
    </g>
   </g>
   <g id="line2d_16">
    <path clip-path="url(#p9e11160fb2)" d="M 102.635682 149.552182 
L 104.690188 149.822777 
L 108.89812 149.894766 
L 153.343931 149.896616 
L 168.303778 149.770815 
L 182.601617 149.440382 
L 193.285048 148.89229 
L 199.037665 148.406352 
L 204.478301 147.750535 
L 209.173227 146.9537 
L 212.74198 146.142918 
L 215.968315 145.197278 
L 218.928325 144.094138 
L 221.477435 142.906022 
L 223.729782 141.626614 
L 225.875599 140.161795 
L 227.98337 138.441566 
L 229.8933 136.592144 
L 231.79562 134.442114 
L 233.705549 131.932543 
L 235.562214 129.124609 
L 237.555846 125.700022 
L 239.792974 121.37926 
L 242.608408 115.403806 
L 246.976136 106.170607 
L 248.741489 102.99474 
L 250.187252 100.838301 
L 251.38191 99.436298 
L 252.553739 98.428339 
L 253.504899 97.914529 
L 254.387576 97.669422 
L 255.308299 97.6788 
L 256.13771 97.900218 
L 257.104089 98.425812 
L 258.001984 99.184712 
L 259.074893 100.376403 
L 260.406517 102.222273 
L 261.85228 104.675553 
L 263.640461 108.164825 
L 267.14834 115.691307 
L 270.351847 122.381406 
L 272.573758 126.529419 
L 274.628263 129.910211 
L 276.599067 132.726425 
L 278.47095 135.030225 
L 280.449364 137.116596 
L 282.49626 138.935661 
L 284.535547 140.459773 
L 286.780285 141.857881 
L 289.27613 143.131526 
L 291.946987 144.227939 
L 294.724375 145.140459 
L 297.95071 145.979739 
L 301.572728 146.706787 
L 306.077422 147.377235 
L 311.50284 147.957367 
L 318.861015 148.481779 
L 326.645309 148.837467 
L 340.456155 149.193279 
L 356.458473 149.391189 
L 376.166511 149.480202 
L 392.998241 149.527445 
L 406.603636 149.820526 
L 406.999318 149.895003 
L 406.999318 149.895003 
" style="fill:none;stroke:#1f77b4;stroke-linecap:square;stroke-width:1.5;"/>
   </g>
   <g id="patch_9">
    <path d="M 87.4175 155.848125 
L 87.4175 91.895184 
" style="fill:none;stroke:#000000;stroke-linecap:square;stroke-linejoin:miter;stroke-width:0.8;"/>
   </g>
   <g id="patch_10">
    <path d="M 422.2175 155.848125 
L 422.2175 91.895184 
" style="fill:none;stroke:#000000;stroke-linecap:square;stroke-linejoin:miter;stroke-width:0.8;"/>
   </g>
   <g id="patch_11">
    <path d="M 87.4175 155.848125 
L 422.2175 155.848125 
" style="fill:none;stroke:#000000;stroke-linecap:square;stroke-linejoin:miter;stroke-width:0.8;"/>
   </g>
   <g id="patch_12">
    <path d="M 87.4175 91.895184 
L 422.2175 91.895184 
" style="fill:none;stroke:#000000;stroke-linecap:square;stroke-linejoin:miter;stroke-width:0.8;"/>
   </g>
   <g id="legend_2">
    <g id="patch_13">
     <path d="M 346.322188 125.912371 
L 411.7175 125.912371 
Q 414.7175 125.912371 414.7175 122.912371 
L 414.7175 102.395184 
Q 414.7175 99.395184 411.7175 99.395184 
L 346.322188 99.395184 
Q 343.322188 99.395184 343.322188 102.395184 
L 343.322188 122.912371 
Q 343.322188 125.912371 346.322188 125.912371 
z
" style="fill:#ffffff;opacity:0.8;stroke:#cccccc;stroke-linejoin:miter;"/>
    </g>
    <g id="line2d_17">
     <path d="M 349.322188 111.54284 
L 379.322188 111.54284 
" style="fill:none;stroke:#1f77b4;stroke-linecap:square;stroke-width:1.5;"/>
    </g>
    <g id="line2d_18"/>
    <g id="text_10">
     <!-- dz -->
     <defs>
      <path d="M 45.40625 46.390625 
L 45.40625 75.984375 
L 54.390625 75.984375 
L 54.390625 0 
L 45.40625 0 
L 45.40625 8.203125 
Q 42.578125 3.328125 38.25 0.953125 
Q 33.9375 -1.421875 27.875 -1.421875 
Q 17.96875 -1.421875 11.734375 6.484375 
Q 5.515625 14.40625 5.515625 27.296875 
Q 5.515625 40.1875 11.734375 48.09375 
Q 17.96875 56 27.875 56 
Q 33.9375 56 38.25 53.625 
Q 42.578125 51.265625 45.40625 46.390625 
z
M 14.796875 27.296875 
Q 14.796875 17.390625 18.875 11.75 
Q 22.953125 6.109375 30.078125 6.109375 
Q 37.203125 6.109375 41.296875 11.75 
Q 45.40625 17.390625 45.40625 27.296875 
Q 45.40625 37.203125 41.296875 42.84375 
Q 37.203125 48.484375 30.078125 48.484375 
Q 22.953125 48.484375 18.875 42.84375 
Q 14.796875 37.203125 14.796875 27.296875 
z
" id="DejaVuSans-100"/>
      <path d="M 5.515625 54.6875 
L 48.1875 54.6875 
L 48.1875 46.484375 
L 14.40625 7.171875 
L 48.1875 7.171875 
L 48.1875 0 
L 4.296875 0 
L 4.296875 8.203125 
L 38.09375 47.515625 
L 5.515625 47.515625 
z
" id="DejaVuSans-122"/>
     </defs>
     <g transform="translate(391.322188 116.79284)scale(0.15 -0.15)">
      <use xlink:href="#DejaVuSans-100"/>
      <use x="63.476562" xlink:href="#DejaVuSans-122"/>
     </g>
    </g>
   </g>
  </g>
  <g id="axes_3">
   <g id="patch_14">
    <path d="M 87.4175 232.591654 
L 422.2175 232.591654 
L 422.2175 168.638713 
L 87.4175 168.638713 
z
" style="fill:#ffffff;"/>
   </g>
   <g id="PathCollection_11">
    <defs>
     <path d="M 0 3 
C 0.795609 3 1.55874 2.683901 2.12132 2.12132 
C 2.683901 1.55874 3 0.795609 3 0 
C 3 -0.795609 2.683901 -1.55874 2.12132 -2.12132 
C 1.55874 -2.683901 0.795609 -3 0 -3 
C -0.795609 -3 -1.55874 -2.683901 -2.12132 -2.12132 
C -2.683901 -1.55874 -3 -0.795609 -3 0 
C -3 0.795609 -2.683901 1.55874 -2.12132 2.12132 
C -1.55874 2.683901 -0.795609 3 0 3 
z
" id="md19bdec4fa" style="stroke:#ff0000;"/>
    </defs>
    <g clip-path="url(#pa6077131b5)">
     <use style="fill:#ff0000;stroke:#ff0000;" x="120.637198" xlink:href="#md19bdec4fa" y="203.480194"/>
    </g>
   </g>
   <g id="PathCollection_12">
    <g clip-path="url(#pa6077131b5)">
     <use style="fill:#ff0000;stroke:#ff0000;" x="269.961034" xlink:href="#md19bdec4fa" y="226.97189"/>
    </g>
   </g>
   <g id="PathCollection_13">
    <g clip-path="url(#pa6077131b5)">
     <use style="fill:#ff0000;stroke:#ff0000;" x="239.620962" xlink:href="#md19bdec4fa" y="174.39846"/>
    </g>
   </g>
   <g id="PathCollection_14">
    <g clip-path="url(#pa6077131b5)">
     <use style="fill:#ff0000;stroke:#ff0000;" x="404.043614" xlink:href="#md19bdec4fa" y="203.343809"/>
    </g>
   </g>
   <g id="PathCollection_15">
    <g clip-path="url(#pa6077131b5)">
     <use style="fill:#ff0000;stroke:#ff0000;" x="105.613352" xlink:href="#md19bdec4fa" y="203.327184"/>
    </g>
   </g>
   <g id="matplotlib.axis_5">
    <g id="xtick_9">
     <g id="line2d_19">
      <g>
       <use style="stroke:#000000;stroke-width:0.8;" x="104.901144" xlink:href="#m3c5e457ada" y="232.591654"/>
      </g>
     </g>
     <g id="text_11">
      <!-- 0 -->
      <g transform="translate(100.129269 250.989311)scale(0.15 -0.15)">
       <use xlink:href="#DejaVuSans-48"/>
      </g>
     </g>
    </g>
    <g id="xtick_10">
     <g id="line2d_20">
      <g>
       <use style="stroke:#000000;stroke-width:0.8;" x="190.578193" xlink:href="#m3c5e457ada" y="232.591654"/>
      </g>
     </g>
     <g id="text_12">
      <!-- 100 -->
      <defs>
       <path d="M 12.40625 8.296875 
L 28.515625 8.296875 
L 28.515625 63.921875 
L 10.984375 60.40625 
L 10.984375 69.390625 
L 28.421875 72.90625 
L 38.28125 72.90625 
L 38.28125 8.296875 
L 54.390625 8.296875 
L 54.390625 0 
L 12.40625 0 
z
" id="DejaVuSans-49"/>
      </defs>
      <g transform="translate(176.262568 250.989311)scale(0.15 -0.15)">
       <use xlink:href="#DejaVuSans-49"/>
       <use x="63.623047" xlink:href="#DejaVuSans-48"/>
       <use x="127.246094" xlink:href="#DejaVuSans-48"/>
      </g>
     </g>
    </g>
    <g id="xtick_11">
     <g id="line2d_21">
      <g>
       <use style="stroke:#000000;stroke-width:0.8;" x="276.255242" xlink:href="#m3c5e457ada" y="232.591654"/>
      </g>
     </g>
     <g id="text_13">
      <!-- 200 -->
      <g transform="translate(261.939617 250.989311)scale(0.15 -0.15)">
       <use xlink:href="#DejaVuSans-50"/>
       <use x="63.623047" xlink:href="#DejaVuSans-48"/>
       <use x="127.246094" xlink:href="#DejaVuSans-48"/>
      </g>
     </g>
    </g>
    <g id="xtick_12">
     <g id="line2d_22">
      <g>
       <use style="stroke:#000000;stroke-width:0.8;" x="361.932291" xlink:href="#m3c5e457ada" y="232.591654"/>
      </g>
     </g>
     <g id="text_14">
      <!-- 300 -->
      <defs>
       <path d="M 40.578125 39.3125 
Q 47.65625 37.796875 51.625 33 
Q 55.609375 28.21875 55.609375 21.1875 
Q 55.609375 10.40625 48.1875 4.484375 
Q 40.765625 -1.421875 27.09375 -1.421875 
Q 22.515625 -1.421875 17.65625 -0.515625 
Q 12.796875 0.390625 7.625 2.203125 
L 7.625 11.71875 
Q 11.71875 9.328125 16.59375 8.109375 
Q 21.484375 6.890625 26.8125 6.890625 
Q 36.078125 6.890625 40.9375 10.546875 
Q 45.796875 14.203125 45.796875 21.1875 
Q 45.796875 27.640625 41.28125 31.265625 
Q 36.765625 34.90625 28.71875 34.90625 
L 20.21875 34.90625 
L 20.21875 43.015625 
L 29.109375 43.015625 
Q 36.375 43.015625 40.234375 45.921875 
Q 44.09375 48.828125 44.09375 54.296875 
Q 44.09375 59.90625 40.109375 62.90625 
Q 36.140625 65.921875 28.71875 65.921875 
Q 24.65625 65.921875 20.015625 65.03125 
Q 15.375 64.15625 9.8125 62.3125 
L 9.8125 71.09375 
Q 15.4375 72.65625 20.34375 73.4375 
Q 25.25 74.21875 29.59375 74.21875 
Q 40.828125 74.21875 47.359375 69.109375 
Q 53.90625 64.015625 53.90625 55.328125 
Q 53.90625 49.265625 50.4375 45.09375 
Q 46.96875 40.921875 40.578125 39.3125 
z
" id="DejaVuSans-51"/>
      </defs>
      <g transform="translate(347.616666 250.989311)scale(0.15 -0.15)">
       <use xlink:href="#DejaVuSans-51"/>
       <use x="63.623047" xlink:href="#DejaVuSans-48"/>
       <use x="127.246094" xlink:href="#DejaVuSans-48"/>
      </g>
     </g>
    </g>
    <g id="text_15">
     <!-- x (m) -->
     <defs>
      <path d="M 54.890625 54.6875 
L 35.109375 28.078125 
L 55.90625 0 
L 45.3125 0 
L 29.390625 21.484375 
L 13.484375 0 
L 2.875 0 
L 24.125 28.609375 
L 4.6875 54.6875 
L 15.28125 54.6875 
L 29.78125 35.203125 
L 44.28125 54.6875 
z
" id="DejaVuSans-120"/>
      <path d="M 52 44.1875 
Q 55.375 50.25 60.0625 53.125 
Q 64.75 56 71.09375 56 
Q 79.640625 56 84.28125 50.015625 
Q 88.921875 44.046875 88.921875 33.015625 
L 88.921875 0 
L 79.890625 0 
L 79.890625 32.71875 
Q 79.890625 40.578125 77.09375 44.375 
Q 74.3125 48.1875 68.609375 48.1875 
Q 61.625 48.1875 57.5625 43.546875 
Q 53.515625 38.921875 53.515625 30.90625 
L 53.515625 0 
L 44.484375 0 
L 44.484375 32.71875 
Q 44.484375 40.625 41.703125 44.40625 
Q 38.921875 48.1875 33.109375 48.1875 
Q 26.21875 48.1875 22.15625 43.53125 
Q 18.109375 38.875 18.109375 30.90625 
L 18.109375 0 
L 9.078125 0 
L 9.078125 54.6875 
L 18.109375 54.6875 
L 18.109375 46.1875 
Q 21.1875 51.21875 25.484375 53.609375 
Q 29.78125 56 35.6875 56 
Q 41.65625 56 45.828125 52.96875 
Q 50 49.953125 52 44.1875 
z
" id="DejaVuSans-109"/>
     </defs>
     <g transform="translate(234.837031 269.506498)scale(0.15 -0.15)">
      <use xlink:href="#DejaVuSans-120"/>
      <use x="59.179688" xlink:href="#DejaVuSans-32"/>
      <use x="90.966797" xlink:href="#DejaVuSans-40"/>
      <use x="129.980469" xlink:href="#DejaVuSans-109"/>
      <use x="227.392578" xlink:href="#DejaVuSans-41"/>
     </g>
    </g>
   </g>
   <g id="matplotlib.axis_6">
    <g id="ytick_5">
     <g id="line2d_23">
      <g>
       <use style="stroke:#000000;stroke-width:0.8;" x="87.4175" xlink:href="#m4faff08b1d" y="224.636888"/>
      </g>
     </g>
     <g id="text_16">
      <!-- −0.1 -->
      <g transform="translate(43.993281 230.335716)scale(0.15 -0.15)">
       <use xlink:href="#DejaVuSans-8722"/>
       <use x="83.789062" xlink:href="#DejaVuSans-48"/>
       <use x="147.412109" xlink:href="#DejaVuSans-46"/>
       <use x="179.199219" xlink:href="#DejaVuSans-49"/>
      </g>
     </g>
    </g>
    <g id="ytick_6">
     <g id="line2d_24">
      <g>
       <use style="stroke:#000000;stroke-width:0.8;" x="87.4175" xlink:href="#m4faff08b1d" y="202.785797"/>
      </g>
     </g>
     <g id="text_17">
      <!-- 0.0 -->
      <g transform="translate(56.562813 208.484625)scale(0.15 -0.15)">
       <use xlink:href="#DejaVuSans-48"/>
       <use x="63.623047" xlink:href="#DejaVuSans-46"/>
       <use x="95.410156" xlink:href="#DejaVuSans-48"/>
      </g>
     </g>
    </g>
    <g id="ytick_7">
     <g id="line2d_25">
      <g>
       <use style="stroke:#000000;stroke-width:0.8;" x="87.4175" xlink:href="#m4faff08b1d" y="180.934706"/>
      </g>
     </g>
     <g id="text_18">
      <!-- 0.1 -->
      <g transform="translate(56.562813 186.633535)scale(0.15 -0.15)">
       <use xlink:href="#DejaVuSans-48"/>
       <use x="63.623047" xlink:href="#DejaVuSans-46"/>
       <use x="95.410156" xlink:href="#DejaVuSans-49"/>
      </g>
     </g>
    </g>
    <g id="text_19">
     <!-- voltage   -->
     <g transform="translate(18.597656 233.40659)rotate(-90)scale(0.15 -0.15)">
      <use xlink:href="#DejaVuSans-118"/>
      <use x="59.179688" xlink:href="#DejaVuSans-111"/>
      <use x="120.361328" xlink:href="#DejaVuSans-108"/>
      <use x="148.144531" xlink:href="#DejaVuSans-116"/>
      <use x="187.353516" xlink:href="#DejaVuSans-97"/>
      <use x="248.632812" xlink:href="#DejaVuSans-103"/>
      <use x="312.109375" xlink:href="#DejaVuSans-101"/>
      <use x="373.632812" xlink:href="#DejaVuSans-32"/>
      <use x="405.419922" xlink:href="#DejaVuSans-32"/>
     </g>
     <!--  ($V.m^{-2}$) -->
     <g transform="translate(36.87375 233.465184)rotate(-90)scale(0.15 -0.15)">
      <use transform="translate(0 0.765625)" xlink:href="#DejaVuSans-32"/>
      <use transform="translate(31.787109 0.765625)" xlink:href="#DejaVuSans-40"/>
      <use transform="translate(70.800781 0.765625)" xlink:href="#DejaVuSans-Oblique-86"/>
      <use transform="translate(139.208984 0.765625)" xlink:href="#DejaVuSans-46"/>
      <use transform="translate(190.478516 0.765625)" xlink:href="#DejaVuSans-Oblique-109"/>
      <use transform="translate(292.540521 39.046875)scale(0.7)" xlink:href="#DejaVuSans-8722"/>
      <use transform="translate(351.192865 39.046875)scale(0.7)" xlink:href="#DejaVuSans-50"/>
      <use transform="translate(398.463372 0.765625)" xlink:href="#DejaVuSans-41"/>
     </g>
    </g>
   </g>
   <g id="line2d_26">
    <path clip-path="url(#pa6077131b5)" d="M 104.901144 203.330894 
L 110.074025 203.408163 
L 121.191971 203.479995 
L 135.64605 203.358812 
L 146.539089 203.054721 
L 155.235527 202.595513 
L 162.762443 201.979336 
L 169.659618 201.192945 
L 176.211934 200.221281 
L 182.606815 199.046605 
L 188.851757 197.677122 
L 194.879288 196.133904 
L 200.584451 194.447444 
L 205.697357 192.708136 
L 210.203012 190.94425 
L 214.251353 189.123975 
L 217.984824 187.20345 
L 221.545865 185.121791 
L 225.19687 182.726658 
L 230.137346 179.1887 
L 234.110719 176.456915 
L 236.089908 175.357041 
L 237.701748 174.717213 
L 239.066189 174.425637 
L 240.258201 174.422514 
L 241.270286 174.616878 
L 242.289869 175.026706 
L 243.324445 175.713524 
L 244.299046 176.62515 
L 245.416088 177.958855 
L 246.70556 179.907022 
L 247.95005 182.229853 
L 249.321988 185.251656 
L 250.986307 189.467335 
L 253.070453 195.387968 
L 259.495321 214.062427 
L 261.152143 217.985108 
L 262.584056 220.832653 
L 263.84354 222.872648 
L 265.043049 224.422942 
L 266.227564 225.568651 
L 267.292128 226.287582 
L 268.326704 226.727929 
L 269.398765 226.94544 
L 270.538298 226.94352 
L 271.73031 226.714425 
L 273.147229 226.22138 
L 274.744075 225.425521 
L 277.015645 224.037497 
L 281.978612 220.618426 
L 286.056941 217.952925 
L 289.475541 215.977016 
L 292.826669 214.293372 
L 296.275256 212.807659 
L 299.971242 211.46086 
L 303.944615 210.252551 
L 308.360306 209.148309 
L 313.270795 208.154594 
L 318.871001 207.254035 
L 325.340851 206.445482 
L 332.987718 205.72213 
L 342.171457 205.085306 
L 353.469329 204.53368 
L 367.833445 204.064878 
L 387.295474 203.666508 
L 404.770816 203.348308 
L 404.770816 203.348308 
" style="fill:none;stroke:#1f77b4;stroke-linecap:square;stroke-width:1.5;"/>
   </g>
   <g id="patch_15">
    <path d="M 87.4175 232.591654 
L 87.4175 168.638713 
" style="fill:none;stroke:#000000;stroke-linecap:square;stroke-linejoin:miter;stroke-width:0.8;"/>
   </g>
   <g id="patch_16">
    <path d="M 422.2175 232.591654 
L 422.2175 168.638713 
" style="fill:none;stroke:#000000;stroke-linecap:square;stroke-linejoin:miter;stroke-width:0.8;"/>
   </g>
   <g id="patch_17">
    <path d="M 87.4175 232.591654 
L 422.2175 232.591654 
" style="fill:none;stroke:#000000;stroke-linecap:square;stroke-linejoin:miter;stroke-width:0.8;"/>
   </g>
   <g id="patch_18">
    <path d="M 87.4175 168.638713 
L 422.2175 168.638713 
" style="fill:none;stroke:#000000;stroke-linecap:square;stroke-linejoin:miter;stroke-width:0.8;"/>
   </g>
   <g id="legend_3">
    <g id="patch_19">
     <path d="M 345.316719 202.655901 
L 411.7175 202.655901 
Q 414.7175 202.655901 414.7175 199.655901 
L 414.7175 179.138713 
Q 414.7175 176.138713 411.7175 176.138713 
L 345.316719 176.138713 
Q 342.316719 176.138713 342.316719 179.138713 
L 342.316719 199.655901 
Q 342.316719 202.655901 345.316719 202.655901 
z
" style="fill:#ffffff;opacity:0.8;stroke:#cccccc;stroke-linejoin:miter;"/>
    </g>
    <g id="line2d_27">
     <path d="M 348.316719 188.286369 
L 378.316719 188.286369 
" style="fill:none;stroke:#1f77b4;stroke-linecap:square;stroke-width:1.5;"/>
    </g>
    <g id="line2d_28"/>
    <g id="text_20">
     <!-- dx -->
     <g transform="translate(390.316719 193.536369)scale(0.15 -0.15)">
      <use xlink:href="#DejaVuSans-100"/>
      <use x="63.476562" xlink:href="#DejaVuSans-120"/>
     </g>
    </g>
   </g>
  </g>
 </g>
 <defs>
  <clipPath id="pb8a88ff33f">
   <rect height="63.952941" width="334.8" x="87.4175" y="15.151654"/>
  </clipPath>
  <clipPath id="p9e11160fb2">
   <rect height="63.952941" width="334.8" x="87.4175" y="91.895184"/>
  </clipPath>
  <clipPath id="pa6077131b5">
   <rect height="63.952941" width="334.8" x="87.4175" y="168.638713"/>
  </clipPath>
 </defs>
</svg>
